<svg width="399" height="301" viewBox="0 0 399 301" fill="none" xmlns="http://www.w3.org/2000/svg">
<path d="M161.44 0.17749H141.861V300.177H161.44V0.17749Z" fill="#CC6E5E"/>
<g opacity="0.3">
<path d="M161.44 0.17749H141.861V300.177H161.44V0.17749Z" fill="black"/>
</g>
<path d="M226.622 0.17749H161.441V300.177H226.622V0.17749Z" fill="#CC6E5E"/>
<path d="M199.835 6.54919H166.002V15.7285H199.835V6.54919Z" fill="#1E1502"/>
<g opacity="0.3">
<path d="M199.835 6.54919H166.002V15.7285H199.835V6.54919Z" fill="#FFF8EA"/>
</g>
<path d="M222.262 6.54919H205.346V15.7285H222.262V6.54919Z" fill="#1E1502"/>
<g opacity="0.3">
<path d="M222.262 6.54919H205.346V15.7285H222.262V6.54919Z" fill="#FFF8EA"/>
</g>
<g opacity="0.3">
<path d="M166.002 7.99402L198.215 8.01946L198.286 15.7293H199.835V6.54919H166.002V7.99402Z" fill="black"/>
</g>
<g opacity="0.3">
<path d="M205.346 6.54919V7.88326H220.398V15.7293H222.262V6.54919H205.346Z" fill="black"/>
</g>
<path d="M199.835 22.3456H166.002V31.5249H199.835V22.3456Z" fill="#1E1502"/>
<g opacity="0.3">
<path d="M199.835 22.3456H166.002V31.5249H199.835V22.3456Z" fill="#FFF8EA"/>
</g>
<path d="M222.262 22.3456H205.346V31.5249H222.262V22.3456Z" fill="#1E1502"/>
<g opacity="0.3">
<path d="M222.262 22.3456H205.346V31.5249H222.262V22.3456Z" fill="#FFF8EA"/>
</g>
<g opacity="0.3">
<path d="M166.002 23.7904L198.215 23.815L198.286 31.5249H199.835V22.3456H166.002V23.7904Z" fill="black"/>
</g>
<g opacity="0.3">
<path d="M205.346 22.3456V23.6797H220.398V31.5249H222.262V22.3456H205.346Z" fill="black"/>
</g>
<path d="M199.835 38.1418H166.002V47.3212H199.835V38.1418Z" fill="#1E1502"/>
<g opacity="0.3">
<path d="M199.835 38.1418H166.002V47.3212H199.835V38.1418Z" fill="#FFF8EA"/>
</g>
<path d="M222.262 38.1418H205.346V47.3212H222.262V38.1418Z" fill="#1E1502"/>
<g opacity="0.3">
<path d="M222.262 47.3212H218.01L217.976 45.2667L212.476 45.2741V47.3212H205.346V38.1418H222.262V47.3212Z" fill="#FFF8EA"/>
</g>
<g opacity="0.3">
<path d="M166.002 39.5859L198.215 39.6113L198.286 47.3212H199.835V38.1418H166.002V39.5859Z" fill="black"/>
</g>
<g opacity="0.3">
<path d="M205.346 38.1418V39.4751H220.398V47.3212H222.262V38.1418H205.346Z" fill="black"/>
</g>
<path d="M199.835 53.9374H166.002V63.1167H199.835V53.9374Z" fill="#1E1502"/>
<path d="M222.262 53.9374H205.346V63.1167H222.262V53.9374Z" fill="#1E1502"/>
<g opacity="0.3">
<path d="M208.728 63.1175V58.527H212.14V53.9374H205.346V63.1175H208.728Z" fill="#FFF8EA"/>
</g>
<g opacity="0.3">
<path d="M222.259 53.9374H219.311V63.1167H222.259V53.9374Z" fill="#FFF8EA"/>
</g>
<g opacity="0.3">
<path d="M199.835 53.9374H166.002V63.1167H199.835V53.9374Z" fill="#FFF8EA"/>
</g>
<g opacity="0.3">
<path d="M166.002 55.3822L198.215 55.4077L198.286 63.1175H199.835V53.9374H166.002V55.3822Z" fill="black"/>
</g>
<g opacity="0.3">
<path d="M205.346 53.9374V55.2715H220.398V63.1175H222.262V53.9374H205.346Z" fill="black"/>
</g>
<path d="M199.835 69.7336H166.002V78.913H199.835V69.7336Z" fill="#1E1502"/>
<g opacity="0.3">
<path d="M166.002 76.4032H173.929V72.9827H188.75V78.913H199.835V69.7336H166.002V76.4032Z" fill="#FFF8EA"/>
</g>
<path d="M222.262 69.7336H205.346V78.913H222.262V69.7336Z" fill="#1E1502"/>
<g opacity="0.3">
<path d="M222.259 69.7336H219.311V78.913H222.259V69.7336Z" fill="#FFF8EA"/>
</g>
<g opacity="0.3">
<path d="M166.002 71.1785L198.215 71.2031L198.286 78.913H199.835V69.7336H166.002V71.1785Z" fill="black"/>
</g>
<g opacity="0.3">
<path d="M208.728 69.7336H205.346V78.913H208.728V69.7336Z" fill="#FFF8EA"/>
</g>
<g opacity="0.3">
<path d="M205.346 69.7336V71.0669H220.398V78.913H222.262V69.7336H205.346Z" fill="black"/>
</g>
<path d="M199.835 85.53H166.002V94.7094H199.835V85.53Z" fill="#1E1502"/>
<path d="M222.262 85.53H205.346V94.7094H222.262V85.53Z" fill="#1E1502"/>
<g opacity="0.3">
<path d="M166.002 86.974L198.215 86.9995L198.286 94.7094H199.835V85.53H166.002V86.974Z" fill="black"/>
</g>
<g opacity="0.3">
<path d="M205.346 85.53V86.8633H220.398V94.7094H222.262V85.53H205.346Z" fill="black"/>
</g>
<path d="M199.835 101.326H166.002V110.505H199.835V101.326Z" fill="#1E1502"/>
<path d="M222.262 101.326H205.346V110.505H222.262V101.326Z" fill="#1E1502"/>
<g opacity="0.3">
<path d="M166.002 102.77L198.215 102.795L198.286 110.505H199.835V101.326H166.002V102.77Z" fill="black"/>
</g>
<g opacity="0.3">
<path d="M205.346 101.326V102.66H220.398V110.505H222.262V101.326H205.346Z" fill="black"/>
</g>
<path d="M199.835 117.122H166.002V126.301H199.835V117.122Z" fill="#1E1502"/>
<path d="M222.262 117.122H205.346V126.301H222.262V117.122Z" fill="#1E1502"/>
<g opacity="0.3">
<path d="M166.002 118.566L198.215 118.591L198.286 126.301H199.835V117.122H166.002V118.566Z" fill="black"/>
</g>
<g opacity="0.3">
<path d="M205.346 117.122V118.455H220.398V126.301H222.262V117.122H205.346Z" fill="black"/>
</g>
<path d="M199.835 132.917H166.002V142.097H199.835V132.917Z" fill="#1E1502"/>
<path d="M222.262 132.917H205.346V142.097H222.262V132.917Z" fill="#1E1502"/>
<g opacity="0.3">
<path d="M166.002 134.362L198.215 134.388L198.286 142.097H199.835V132.917H166.002V134.362Z" fill="black"/>
</g>
<g opacity="0.3">
<path d="M205.346 132.917V134.252H220.398V142.097H222.262V132.917H205.346Z" fill="black"/>
</g>
<path d="M199.835 148.714H166.002V157.893H199.835V148.714Z" fill="#1E1502"/>
<path d="M222.262 148.714H205.346V157.893H222.262V148.714Z" fill="#1E1502"/>
<g opacity="0.3">
<path d="M166.002 150.159L198.215 150.183L198.286 157.893H199.835V148.714H166.002V150.159Z" fill="black"/>
</g>
<g opacity="0.3">
<path d="M205.346 148.714V150.047H220.398V157.893H222.262V148.714H205.346Z" fill="black"/>
</g>
<path d="M199.835 164.509H166.002V173.689H199.835V164.509Z" fill="#1E1502"/>
<path d="M222.262 164.509H205.346V173.689H222.262V164.509Z" fill="#1E1502"/>
<g opacity="0.3">
<path d="M166.002 165.954L198.215 165.98L198.286 173.689H199.835V164.509H166.002V165.954Z" fill="black"/>
</g>
<g opacity="0.3">
<path d="M205.346 164.509V165.843H220.398V173.689H222.262V164.509H205.346Z" fill="black"/>
</g>
<path d="M199.835 180.306H166.002V189.485H199.835V180.306Z" fill="#1E1502"/>
<path d="M222.262 180.306H205.346V189.485H222.262V180.306Z" fill="#1E1502"/>
<g opacity="0.3">
<path d="M166.002 181.75L198.215 181.775L198.286 189.485H199.835V180.306H166.002V181.75Z" fill="black"/>
</g>
<g opacity="0.3">
<path d="M205.346 180.306V181.64H220.398V189.485H222.262V180.306H205.346Z" fill="black"/>
</g>
<path d="M199.835 196.102H166.002V205.281H199.835V196.102Z" fill="#1E1502"/>
<path d="M222.262 196.102H205.346V205.281H222.262V196.102Z" fill="#1E1502"/>
<g opacity="0.3">
<path d="M166.002 197.546L198.215 197.571L198.286 205.281H199.835V196.102H166.002V197.546Z" fill="black"/>
</g>
<g opacity="0.3">
<path d="M205.346 196.102V197.435H220.398V205.281H222.262V196.102H205.346Z" fill="black"/>
</g>
<path d="M156.448 8.23193H152.322V14.8391H156.448V8.23193Z" fill="#1E1502"/>
<path d="M156.448 23.6188H152.322V30.226H156.448V23.6188Z" fill="#1E1502"/>
<path d="M156.448 39.1814H152.322V45.7886H156.448V39.1814Z" fill="#1E1502"/>
<path d="M156.448 54.7439H152.322V61.3511H156.448V54.7439Z" fill="#1E1502"/>
<path d="M156.448 70.3065H152.322V76.9137H156.448V70.3065Z" fill="#1E1502"/>
<path d="M156.448 85.8689H152.322V92.4761H156.448V85.8689Z" fill="#1E1502"/>
<path d="M156.448 101.431H152.322V108.039H156.448V101.431Z" fill="#1E1502"/>
<path d="M156.448 116.994H152.322V123.601H156.448V116.994Z" fill="#1E1502"/>
<path d="M156.448 132.556H152.322V139.164H156.448V132.556Z" fill="#1E1502"/>
<path d="M156.448 148.119H152.322V154.726H156.448V148.119Z" fill="#1E1502"/>
<path d="M156.448 163.681H152.322V170.289H156.448V163.681Z" fill="#1E1502"/>
<path d="M156.448 179.244H152.322V185.851H156.448V179.244Z" fill="#1E1502"/>
<path d="M149.749 8.23206H145.623V14.8392H149.749V8.23206Z" fill="#1E1502"/>
<path d="M149.749 23.6189H145.623V30.2261H149.749V23.6189Z" fill="#1E1502"/>
<path d="M149.749 39.1814H145.623V45.7886H149.749V39.1814Z" fill="#1E1502"/>
<path d="M149.749 54.7439H145.623V61.3511H149.749V54.7439Z" fill="#1E1502"/>
<path d="M149.749 70.3064H145.623V76.9136H149.749V70.3064Z" fill="#1E1502"/>
<path d="M149.749 85.8689H145.623V92.4761H149.749V85.8689Z" fill="#1E1502"/>
<path d="M149.749 101.431H145.623V108.039H149.749V101.431Z" fill="#1E1502"/>
<path d="M149.749 116.994H145.623V123.601H149.749V116.994Z" fill="#1E1502"/>
<path d="M149.749 132.556H145.623V139.164H149.749V132.556Z" fill="#1E1502"/>
<path d="M149.749 148.119H145.623V154.726H149.749V148.119Z" fill="#1E1502"/>
<path d="M149.749 163.682H145.623V170.289H149.749V163.682Z" fill="#1E1502"/>
<path d="M149.749 179.244H145.623V185.851H149.749V179.244Z" fill="#1E1502"/>
<path d="M199.113 126.301C199.113 126.419 191.702 126.515 182.561 126.515C173.417 126.515 166.008 126.419 166.008 126.301C166.008 126.183 173.417 126.088 182.561 126.088C191.702 126.087 199.113 126.183 199.113 126.301Z" fill="#FFF8EA"/>
<path d="M220.861 126.301C220.861 126.419 217.492 126.515 213.338 126.515C209.182 126.515 205.814 126.419 205.814 126.301C205.814 126.183 209.182 126.088 213.338 126.088C217.492 126.087 220.861 126.183 220.861 126.301Z" fill="#FFF8EA"/>
<path d="M199.113 142.264C199.113 142.382 191.702 142.477 182.561 142.477C173.417 142.477 166.008 142.381 166.008 142.264C166.008 142.147 173.417 142.051 182.561 142.051C191.702 142.051 199.113 142.146 199.113 142.264Z" fill="#FFF8EA"/>
<path d="M220.861 142.264C220.861 142.382 217.492 142.478 213.338 142.478C209.182 142.478 205.814 142.382 205.814 142.264C205.814 142.147 209.182 142.051 213.338 142.051C217.492 142.051 220.861 142.146 220.861 142.264Z" fill="#FFF8EA"/>
<path d="M199.113 158.227C199.113 158.345 191.702 158.44 182.561 158.44C173.417 158.44 166.008 158.345 166.008 158.227C166.008 158.109 173.417 158.014 182.561 158.014C191.702 158.014 199.113 158.109 199.113 158.227Z" fill="#FFF8EA"/>
<path d="M220.861 158.227C220.861 158.345 217.492 158.44 213.338 158.44C209.182 158.44 205.814 158.345 205.814 158.227C205.814 158.109 209.182 158.014 213.338 158.014C217.492 158.014 220.861 158.109 220.861 158.227Z" fill="#FFF8EA"/>
<path d="M199.113 174.19C199.113 174.308 191.702 174.403 182.561 174.403C173.417 174.403 166.008 174.307 166.008 174.19C166.008 174.072 173.417 173.977 182.561 173.977C191.702 173.977 199.113 174.072 199.113 174.19Z" fill="#FFF8EA"/>
<path d="M220.861 174.19C220.861 174.308 217.492 174.403 213.338 174.403C209.182 174.403 205.814 174.307 205.814 174.19C205.814 174.072 209.182 173.977 213.338 173.977C217.492 173.977 220.861 174.072 220.861 174.19Z" fill="#FFF8EA"/>
<path d="M199.113 190.153C199.113 190.271 191.702 190.366 182.561 190.366C173.417 190.366 166.008 190.271 166.008 190.153C166.008 190.035 173.417 189.94 182.561 189.94C191.702 189.94 199.113 190.035 199.113 190.153Z" fill="#FFF8EA"/>
<path d="M220.861 190.153C220.861 190.271 217.492 190.366 213.338 190.366C209.182 190.366 205.814 190.271 205.814 190.153C205.814 190.035 209.182 189.94 213.338 189.94C217.492 189.94 220.861 190.035 220.861 190.153Z" fill="#FFF8EA"/>
<path d="M199.113 206.116C199.113 206.234 191.702 206.329 182.561 206.329C173.417 206.329 166.008 206.234 166.008 206.116C166.008 205.998 173.417 205.902 182.561 205.902C191.702 205.902 199.113 205.998 199.113 206.116Z" fill="#FFF8EA"/>
<path d="M220.861 206.116C220.861 206.234 217.492 206.329 213.338 206.329C209.182 206.329 205.814 206.234 205.814 206.116C205.814 205.998 209.182 205.902 213.338 205.902C217.492 205.902 220.861 205.998 220.861 206.116Z" fill="#FFF8EA"/>
<path d="M199.113 63.2972C199.113 63.4153 191.702 63.5105 182.561 63.5105C173.417 63.5105 166.008 63.4145 166.008 63.2972C166.008 63.179 173.417 63.0839 182.561 63.0839C191.702 63.0839 199.113 63.179 199.113 63.2972Z" fill="#FFF8EA"/>
<path d="M199.113 47.3212C199.113 47.4394 191.702 47.5346 182.561 47.5346C173.417 47.5346 166.008 47.4386 166.008 47.3212C166.008 47.2039 173.417 47.1079 182.561 47.1079C191.702 47.1079 199.113 47.2031 199.113 47.3212Z" fill="#FFF8EA"/>
<path d="M199.113 31.3452C199.113 31.4633 191.702 31.5585 182.561 31.5585C173.417 31.5585 166.008 31.4625 166.008 31.3452C166.008 31.227 173.417 31.1318 182.561 31.1318C191.702 31.1318 199.113 31.227 199.113 31.3452Z" fill="#FFF8EA"/>
<path d="M199.113 78.9131C199.113 79.0313 191.702 79.1265 182.561 79.1265C173.417 79.1265 166.008 79.0305 166.008 78.9131C166.008 78.7958 173.417 78.6998 182.561 78.6998C191.702 78.6998 199.113 78.795 199.113 78.9131Z" fill="#FFF8EA"/>
<path d="M199.113 94.529C199.113 94.6471 191.702 94.7423 182.561 94.7423C173.417 94.7423 166.008 94.6463 166.008 94.529C166.008 94.4108 173.417 94.3157 182.561 94.3157C191.702 94.3157 199.113 94.4117 199.113 94.529Z" fill="#FFF8EA"/>
<path d="M199.113 110.145C199.113 110.263 191.702 110.358 182.561 110.358C173.417 110.358 166.008 110.262 166.008 110.145C166.008 110.027 173.417 109.931 182.561 109.931C191.702 109.931 199.113 110.027 199.113 110.145Z" fill="#FFF8EA"/>
<path d="M198.469 15.6909C198.469 15.809 191.09 15.9042 181.99 15.9042C172.887 15.9042 165.51 15.8082 165.51 15.6909C165.51 15.5735 172.887 15.4775 181.99 15.4775C191.09 15.4767 198.469 15.5727 198.469 15.6909Z" fill="#FFF8EA"/>
<path d="M220.863 15.6909C220.863 15.809 217.494 15.9042 213.34 15.9042C209.184 15.9042 205.816 15.8082 205.816 15.6909C205.816 15.5735 209.184 15.4775 213.34 15.4775C217.494 15.4767 220.863 15.5727 220.863 15.6909Z" fill="#FFF8EA"/>
<path d="M220.863 31.346C220.863 31.4642 217.494 31.5593 213.34 31.5593C209.184 31.5593 205.816 31.4633 205.816 31.346C205.816 31.2287 209.184 31.1327 213.34 31.1327C217.494 31.1327 220.863 31.2279 220.863 31.346Z" fill="#FFF8EA"/>
<path d="M220.863 47.0013C220.863 47.1194 217.494 47.2146 213.34 47.2146C209.184 47.2146 205.816 47.1186 205.816 47.0013C205.816 46.8831 209.184 46.788 213.34 46.788C217.494 46.788 220.863 46.8831 220.863 47.0013Z" fill="#FFF8EA"/>
<path d="M220.863 63.2972C220.863 63.4153 217.494 63.5105 213.34 63.5105C209.184 63.5105 205.816 63.4145 205.816 63.2972C205.816 63.179 209.184 63.0839 213.34 63.0839C217.494 63.0839 220.863 63.179 220.863 63.2972Z" fill="#FFF8EA"/>
<path d="M220.863 78.9131C220.863 79.0313 217.494 79.1265 213.34 79.1265C209.184 79.1265 205.816 79.0305 205.816 78.9131C205.816 78.7958 209.184 78.6998 213.34 78.6998C217.494 78.6998 220.863 78.795 220.863 78.9131Z" fill="#FFF8EA"/>
<path d="M220.863 94.5865C220.863 94.7046 217.494 94.7998 213.34 94.7998C209.184 94.7998 205.816 94.7038 205.816 94.5865C205.816 94.4692 209.184 94.3732 213.34 94.3732C217.494 94.3732 220.863 94.4684 220.863 94.5865Z" fill="#FFF8EA"/>
<path d="M220.863 110.261C220.863 110.379 217.494 110.474 213.34 110.474C209.184 110.474 205.816 110.378 205.816 110.261C205.816 110.143 209.184 110.047 213.34 110.047C217.494 110.046 220.863 110.142 220.863 110.261Z" fill="#FFF8EA"/>
<path d="M124.149 83.1591H35.6719V299.325H124.149V83.1591Z" fill="#CC6E5E"/>
<path d="M77.9595 92.0388H71.0332V290.727H77.9595V92.0388Z" fill="#1E1502"/>
<path d="M87.7095 92.0389H80.7832V290.728H87.7095V92.0389Z" fill="#1E1502"/>
<path d="M97.4556 92.0391H90.5293V290.728H97.4556V92.0391Z" fill="#1E1502"/>
<path d="M48.6314 92.0389H41.7051V290.728H48.6314V92.0389Z" fill="#1E1502"/>
<path d="M58.3795 92.0389H51.4531V290.728H58.3795V92.0389Z" fill="#1E1502"/>
<path d="M107.206 92.0389H100.279V290.728H107.206V92.0389Z" fill="#1E1502"/>
<path d="M116.952 92.0389H110.025V290.728H116.952V92.0389Z" fill="#1E1502"/>
<g opacity="0.3">
<path d="M64.0467 83.1591H35.6719V299.325H64.0467V83.1591Z" fill="black"/>
</g>
<path d="M96.7066 114.022C96.7903 114.106 95.8911 115.14 94.6998 116.331C93.5076 117.523 92.4739 118.422 92.3902 118.338C92.3065 118.254 93.2049 117.221 94.3978 116.028C95.5891 114.838 96.6229 113.939 96.7066 114.022Z" fill="#FFF8EA"/>
<path d="M105.331 119.853C105.413 119.938 104.797 120.661 103.956 121.467C103.114 122.273 102.367 122.857 102.285 122.772C102.203 122.687 102.819 121.965 103.66 121.158C104.501 120.352 105.25 119.768 105.331 119.853Z" fill="#FFF8EA"/>
<path d="M114.092 107.539C114.173 107.624 113.585 108.319 112.78 109.09C111.973 109.861 111.254 110.417 111.172 110.332C111.09 110.247 111.678 109.553 112.484 108.781C113.291 108.01 114.01 107.454 114.092 107.539Z" fill="#FFF8EA"/>
<path d="M288.791 53.9326H244.141V65.7563H288.791V53.9326Z" fill="#263238"/>
<path d="M286.912 55.421H246.021V63.0784H286.912V55.421Z" fill="#1E1502"/>
<g opacity="0.3">
<path d="M286.912 55.421H246.021V63.0784H286.912V55.421Z" fill="#FFF8EA"/>
</g>
<path d="M294.682 64.021H237.322V209.306H294.682V64.021Z" fill="#263238"/>
<path d="M291.251 67.384H240.398V209.306H291.251V67.384Z" fill="#1E1502"/>
<g opacity="0.3">
<path d="M240.398 133.941H250.699V117.939H258.994V105.005H275.582V145.795H283.876V87.9563H291.25V67.384H240.398V133.941Z" fill="#FFF8EA"/>
</g>
<path d="M293.594 82.3149C293.594 82.433 281.404 82.5282 266.37 82.5282C251.331 82.5282 239.143 82.4322 239.143 82.3149C239.143 82.1967 251.331 82.1016 266.37 82.1016C281.404 82.1016 293.594 82.1976 293.594 82.3149Z" fill="#263238"/>
<path d="M293.594 96.8757C293.594 96.9938 281.404 97.089 266.37 97.089C251.331 97.089 239.143 96.993 239.143 96.8757C239.143 96.7575 251.331 96.6624 266.37 96.6624C281.404 96.6615 293.594 96.7575 293.594 96.8757Z" fill="#263238"/>
<path d="M293.594 111.435C293.594 111.554 281.404 111.649 266.37 111.649C251.331 111.649 239.143 111.553 239.143 111.435C239.143 111.317 251.331 111.222 266.37 111.222C281.404 111.222 293.594 111.317 293.594 111.435Z" fill="#263238"/>
<path d="M293.594 125.995C293.594 126.114 281.404 126.209 266.37 126.209C251.331 126.209 239.143 126.113 239.143 125.995C239.143 125.877 251.331 125.782 266.37 125.782C281.404 125.782 293.594 125.878 293.594 125.995Z" fill="#263238"/>
<path d="M293.594 140.556C293.594 140.674 281.404 140.77 266.37 140.77C251.331 140.77 239.143 140.674 239.143 140.556C239.143 140.438 251.331 140.343 266.37 140.343C281.404 140.342 293.594 140.438 293.594 140.556Z" fill="#263238"/>
<path d="M293.594 155.116C293.594 155.234 281.404 155.329 266.37 155.329C251.331 155.329 239.143 155.233 239.143 155.116C239.143 154.999 251.331 154.903 266.37 154.903C281.404 154.903 293.594 154.998 293.594 155.116Z" fill="#263238"/>
<path d="M293.594 169.676C293.594 169.794 281.404 169.889 266.37 169.889C251.331 169.889 239.143 169.793 239.143 169.676C239.143 169.558 251.331 169.463 266.37 169.463C281.404 169.463 293.594 169.559 293.594 169.676Z" fill="#263238"/>
<path d="M293.594 184.237C293.594 184.355 281.404 184.45 266.37 184.45C251.331 184.45 239.143 184.354 239.143 184.237C239.143 184.119 251.331 184.023 266.37 184.023C281.404 184.023 293.594 184.119 293.594 184.237Z" fill="#263238"/>
<path d="M293.594 198.796C293.594 198.915 281.404 199.01 266.37 199.01C251.331 199.01 239.143 198.915 239.143 198.796C239.143 198.678 251.331 198.583 266.37 198.583C281.404 198.583 293.594 198.678 293.594 198.796Z" fill="#263238"/>
<path d="M251.973 212.336C251.855 212.336 251.76 177.068 251.76 133.572C251.76 90.0609 251.856 54.7999 251.973 54.7999C252.091 54.7999 252.186 90.0609 252.186 133.572C252.186 177.068 252.091 212.336 251.973 212.336Z" fill="#263238"/>
<path d="M266.733 212.336C266.615 212.336 266.52 177.067 266.52 133.571C266.52 90.0608 266.616 54.7998 266.733 54.7998C266.851 54.7998 266.946 90.0608 266.946 133.571C266.946 177.067 266.851 212.336 266.733 212.336Z" fill="#263238"/>
<path d="M281.491 212.336C281.373 212.336 281.277 177.067 281.277 133.571C281.277 90.0608 281.373 54.7998 281.491 54.7998C281.609 54.7998 281.704 90.0608 281.704 133.571C281.704 177.067 281.609 212.336 281.491 212.336Z" fill="#263238"/>
<path d="M244.141 53.9326H237.682V64.021H244.141V53.9326Z" fill="#263238"/>
<g opacity="0.3">
<path d="M244.141 53.9326H237.682V64.021H244.141V53.9326Z" fill="black"/>
</g>
<path d="M237.604 64.1129H231.145V186.385H237.604V64.1129Z" fill="#263238"/>
<g opacity="0.3">
<path d="M237.604 64.1129H231.145V186.385H237.604V64.1129Z" fill="black"/>
</g>
<path d="M264.601 84.9608C264.682 85.0469 262.794 86.9561 260.386 89.2247C257.977 91.4941 255.959 93.2638 255.878 93.1777C255.796 93.0916 257.683 91.1832 260.093 88.9138C262.501 86.6444 264.519 84.8746 264.601 84.9608Z" fill="#FFF8EA"/>
<path d="M278.261 84.704C278.342 84.7902 276.454 86.6994 274.046 88.9679C271.636 91.2373 269.619 93.0071 269.538 92.9209C269.456 92.8348 271.344 90.9264 273.753 88.657C276.161 86.3884 278.18 84.6187 278.261 84.704Z" fill="#FFF8EA"/>
<path d="M278.495 73.1404C278.576 73.2266 276.689 75.1358 274.28 77.4044C271.872 79.6737 269.853 81.4435 269.772 81.3573C269.691 81.2712 271.578 79.3628 273.988 77.0934C276.396 74.8248 278.414 73.0551 278.495 73.1404Z" fill="#FFF8EA"/>
<path d="M389.004 263.075H312.959V127.667L389.004 90.6128V263.075Z" fill="#1E1502"/>
<path d="M350.28 186.306H343.439V196.135H350.28V186.306Z" fill="#FFF8EA"/>
<g opacity="0.3">
<path d="M343.439 186.306V187.525H349.126V196.135H350.28V186.306H343.439Z" fill="black"/>
</g>
<path d="M350.28 205.328H343.439V215.156H350.28V205.328Z" fill="#FFF8EA"/>
<g opacity="0.3">
<path d="M343.439 205.328V206.546H349.126V215.157H350.28V205.328H343.439Z" fill="black"/>
</g>
<path d="M350.28 224.35H343.439V234.179H350.28V224.35Z" fill="#FFF8EA"/>
<g opacity="0.3">
<path d="M343.439 224.35V225.569H349.126V234.179H350.28V224.35H343.439Z" fill="black"/>
</g>
<path d="M350.28 243.478H343.439V263.153H350.28V243.478Z" fill="#FFF8EA"/>
<g opacity="0.3">
<path d="M343.439 243.478V245.917H349.126V263.153H350.28V243.478H343.439Z" fill="black"/>
</g>
<path d="M350.28 166.823H343.439V176.652H350.28V166.823Z" fill="#FFF8EA"/>
<g opacity="0.3">
<path d="M343.439 166.823V168.042H349.126V176.652H350.28V166.823H343.439Z" fill="black"/>
</g>
<path d="M350.28 147.341H343.439V157.17H350.28V147.341Z" fill="#FFF8EA"/>
<g opacity="0.3">
<path d="M343.439 147.341V148.559H349.126V157.169H350.28V147.341H343.439Z" fill="black"/>
</g>
<path d="M350.28 127.858H343.439V137.687H350.28V127.858Z" fill="#FFF8EA"/>
<g opacity="0.3">
<path d="M343.439 127.858V129.077H349.126V137.687H350.28V127.858H343.439Z" fill="black"/>
</g>
<path d="M365.78 185.877H358.939V195.707H365.78V185.877Z" fill="#FFF8EA"/>
<g opacity="0.3">
<path d="M358.939 185.877V187.096H364.626V195.707H365.78V185.877H358.939Z" fill="black"/>
</g>
<path d="M365.78 204.9H358.939V214.728H365.78V204.9Z" fill="#FFF8EA"/>
<g opacity="0.3">
<path d="M358.939 204.9V206.118H364.626V214.729H365.78V204.9H358.939Z" fill="black"/>
</g>
<path d="M365.78 223.922H358.939V233.75H365.78V223.922Z" fill="#FFF8EA"/>
<g opacity="0.3">
<path d="M358.939 223.922V225.141H364.626V233.751H365.78V223.922H358.939Z" fill="black"/>
</g>
<path d="M365.78 242.944H358.939V263.153H365.78V242.944Z" fill="#FFF8EA"/>
<g opacity="0.3">
<path d="M358.939 242.944V245.45H364.626V263.153H365.78V242.944H358.939Z" fill="black"/>
</g>
<path d="M365.78 166.395H358.939V176.224H365.78V166.395Z" fill="#FFF8EA"/>
<g opacity="0.3">
<path d="M358.939 166.395V167.614H364.626V176.224H365.78V166.395H358.939Z" fill="black"/>
</g>
<path d="M365.78 146.913H358.939V156.741H365.78V146.913Z" fill="#FFF8EA"/>
<g opacity="0.3">
<path d="M358.939 146.913V148.131H364.626V156.741H365.78V146.913H358.939Z" fill="black"/>
</g>
<path d="M365.78 127.43H358.939V137.259H365.78V127.43Z" fill="#FFF8EA"/>
<g opacity="0.3">
<path d="M358.939 127.43V128.649H364.626V137.259H365.78V127.43H358.939Z" fill="black"/>
</g>
<path d="M381.273 186.201H374.432V196.029H381.273V186.201Z" fill="#FFF8EA"/>
<g opacity="0.3">
<path d="M374.432 186.201V187.419H380.118V196.03H381.273V186.201H374.432Z" fill="black"/>
</g>
<path d="M381.273 205.223H374.432V215.051H381.273V205.223Z" fill="#FFF8EA"/>
<g opacity="0.3">
<path d="M374.432 205.223V206.441H380.118V215.052H381.273V205.223H374.432Z" fill="black"/>
</g>
<path d="M381.273 224.245H374.432V234.074H381.273V224.245Z" fill="#FFF8EA"/>
<g opacity="0.3">
<path d="M374.432 224.245V225.464H380.118V234.074H381.273V224.245H374.432Z" fill="black"/>
</g>
<path d="M381.273 243.268H374.432V262.943H381.273V243.268Z" fill="#FFF8EA"/>
<g opacity="0.3">
<path d="M374.432 243.268V245.707H380.118V262.943H381.273V243.268H374.432Z" fill="black"/>
</g>
<path d="M381.273 166.718H374.432V176.546H381.273V166.718Z" fill="#FFF8EA"/>
<g opacity="0.3">
<path d="M374.432 166.718V167.937H380.118V176.547H381.273V166.718H374.432Z" fill="black"/>
</g>
<path d="M381.273 147.236H374.432V157.064H381.273V147.236Z" fill="#FFF8EA"/>
<g opacity="0.3">
<path d="M374.432 147.236V148.454H380.118V157.064H381.273V147.236H374.432Z" fill="black"/>
</g>
<path d="M381.273 127.753H374.432V137.582H381.273V127.753Z" fill="#FFF8EA"/>
<g opacity="0.3">
<path d="M374.432 127.753V128.972H380.118V137.582H381.273V127.753H374.432Z" fill="black"/>
</g>
<path d="M381.273 111.145H374.432V120.974H381.273V111.145Z" fill="#FFF8EA"/>
<g opacity="0.3">
<path d="M374.432 111.145V112.364H380.118V120.974H381.273V111.145H374.432Z" fill="black"/>
</g>
<path d="M328.491 130.888H326.094V140.717H328.491V130.888Z" fill="#263238"/>
<path d="M328.829 140.718H324.453V142.198H328.829V140.718Z" fill="#FFF8EA"/>
<path d="M328.491 149.614H326.094V159.444H328.491V149.614Z" fill="#263238"/>
<path d="M328.829 159.443H324.453V160.924H328.829V159.443Z" fill="#FFF8EA"/>
<path d="M328.491 168.34H326.094V178.169H328.491V168.34Z" fill="#263238"/>
<path d="M328.829 178.169H324.453V179.65H328.829V178.169Z" fill="#FFF8EA"/>
<path d="M328.491 187.066H326.094V196.895H328.491V187.066Z" fill="#263238"/>
<path d="M328.829 196.895H324.453V198.375H328.829V196.895Z" fill="#FFF8EA"/>
<path d="M328.727 205.303H326.33V215.132H328.727V205.303Z" fill="#263238"/>
<path d="M329.065 215.132H324.689V216.613H329.065V215.132Z" fill="#FFF8EA"/>
<path d="M328.967 223.541H326.57V233.371H328.967V223.541Z" fill="#263238"/>
<path d="M329.305 233.37H324.93V234.851H329.305V233.37Z" fill="#FFF8EA"/>
<path d="M329.201 241.779H326.805V251.608H329.201V241.779Z" fill="#263238"/>
<path d="M329.542 251.608H325.166V253.089H329.542V251.608Z" fill="#FFF8EA"/>
<path d="M321.165 130.888H318.768V140.717H321.165V130.888Z" fill="#263238"/>
<path d="M321.502 140.718H317.127V142.198H321.502V140.718Z" fill="#FFF8EA"/>
<path d="M321.165 149.615H318.768V159.444H321.165V149.615Z" fill="#263238"/>
<path d="M321.502 159.443H317.127V160.924H321.502V159.443Z" fill="#FFF8EA"/>
<path d="M321.165 168.34H318.768V178.169H321.165V168.34Z" fill="#263238"/>
<path d="M321.502 178.169H317.127V179.65H321.502V178.169Z" fill="#FFF8EA"/>
<path d="M321.165 187.066H318.768V196.895H321.165V187.066Z" fill="#263238"/>
<path d="M321.502 196.895H317.127V198.375H321.502V196.895Z" fill="#FFF8EA"/>
<path d="M321.402 205.303H319.006V215.132H321.402V205.303Z" fill="#263238"/>
<path d="M321.739 215.132H317.363V216.613H321.739V215.132Z" fill="#FFF8EA"/>
<path d="M321.637 223.541H319.24V233.37H321.637V223.541Z" fill="#263238"/>
<path d="M321.975 233.37H317.6V234.851H321.975V233.37Z" fill="#FFF8EA"/>
<path d="M321.875 241.779H319.479V251.608H321.875V241.779Z" fill="#263238"/>
<path d="M322.215 251.608H317.84V253.089H322.215V251.608Z" fill="#FFF8EA"/>
<g opacity="0.3">
<path d="M334.481 263.153H312.959V127.667L334.975 116.94L334.481 263.153Z" fill="black"/>
</g>
<path d="M193.936 124.51H128.947V299.637H193.936V124.51Z" fill="#FFF8EA"/>
<path d="M158.468 131.173H154.199V137.307H158.468V131.173Z" fill="#1E1502"/>
<g opacity="0.3">
<path d="M154.199 131.173V131.934H157.748V137.307H158.468V131.173H154.199Z" fill="black"/>
</g>
<path d="M165.015 131.173H160.746V137.307H165.015V131.173Z" fill="#1E1502"/>
<g opacity="0.3">
<path d="M160.746 131.173V131.934H164.295V137.307H165.015V131.173H160.746Z" fill="black"/>
</g>
<path d="M171.564 131.173H167.295V137.307H171.564V131.173Z" fill="#1E1502"/>
<g opacity="0.3">
<path d="M167.295 131.173V131.934H170.843V137.307H171.564V131.173H167.295Z" fill="black"/>
</g>
<path d="M178.113 131.173H173.844V137.307H178.113V131.173Z" fill="#1E1502"/>
<g opacity="0.3">
<path d="M173.844 131.173V131.934H177.392V137.307H178.113V131.173H173.844Z" fill="black"/>
</g>
<path d="M184.659 131.173H180.391V137.307H184.659V131.173Z" fill="#1E1502"/>
<g opacity="0.3">
<path d="M180.391 131.173V131.934H183.939V137.307H184.659V131.173H180.391Z" fill="black"/>
</g>
<path d="M191.208 131.173H186.939V137.307H191.208V131.173Z" fill="#1E1502"/>
<g opacity="0.3">
<path d="M186.939 131.173V131.934H190.488V137.307H191.208V131.173H186.939Z" fill="black"/>
</g>
<path d="M135.941 131.173H131.672V137.307H135.941V131.173Z" fill="#1E1502"/>
<g opacity="0.3">
<path d="M131.672 131.173V131.934H135.22V137.307H135.941V131.173H131.672Z" fill="black"/>
</g>
<path d="M142.49 131.173H138.221V137.307H142.49V131.173Z" fill="#1E1502"/>
<g opacity="0.3">
<path d="M138.221 131.173V131.934H141.769V137.307H142.49V131.173H138.221Z" fill="black"/>
</g>
<path d="M149.038 131.173H144.77V137.307H149.038V131.173Z" fill="#1E1502"/>
<g opacity="0.3">
<path d="M144.77 131.173V131.934H148.318V137.307H149.038V131.173H144.77Z" fill="black"/>
</g>
<path d="M158.468 140.28H154.199V146.414H158.468V140.28Z" fill="#1E1502"/>
<g opacity="0.3">
<path d="M154.199 140.28V141.041H157.748V146.414H158.468V140.28H154.199Z" fill="black"/>
</g>
<path d="M165.015 140.28H160.746V146.414H165.015V140.28Z" fill="#1E1502"/>
<g opacity="0.3">
<path d="M160.746 140.28V141.041H164.295V146.414H165.015V140.28H160.746Z" fill="black"/>
</g>
<path d="M171.564 140.28H167.295V146.414H171.564V140.28Z" fill="#1E1502"/>
<g opacity="0.3">
<path d="M167.295 140.28V141.041H170.843V146.414H171.564V140.28H167.295Z" fill="black"/>
</g>
<path d="M178.113 140.28H173.844V146.414H178.113V140.28Z" fill="#1E1502"/>
<g opacity="0.3">
<path d="M173.844 140.28V141.041H177.392V146.414H178.113V140.28H173.844Z" fill="black"/>
</g>
<path d="M184.659 140.28H180.391V146.414H184.659V140.28Z" fill="#1E1502"/>
<g opacity="0.3">
<path d="M180.391 140.28V141.041H183.939V146.414H184.659V140.28H180.391Z" fill="black"/>
</g>
<path d="M191.208 140.28H186.939V146.414H191.208V140.28Z" fill="#1E1502"/>
<g opacity="0.3">
<path d="M186.939 140.28V141.041H190.488V146.414H191.208V140.28H186.939Z" fill="black"/>
</g>
<path d="M135.941 140.281H131.672V146.414H135.941V140.281Z" fill="#1E1502"/>
<g opacity="0.3">
<path d="M131.672 140.281V141.041H135.22V146.414H135.941V140.281H131.672Z" fill="black"/>
</g>
<path d="M142.49 140.281H138.221V146.414H142.49V140.281Z" fill="#1E1502"/>
<g opacity="0.3">
<path d="M138.221 140.281V141.041H141.769V146.414H142.49V140.281H138.221Z" fill="black"/>
</g>
<path d="M149.038 140.281H144.77V146.414H149.038V140.281Z" fill="#1E1502"/>
<g opacity="0.3">
<path d="M144.77 140.281V141.041H148.318V146.414H149.038V140.281H144.77Z" fill="black"/>
</g>
<path d="M158.468 149.387H154.199V155.521H158.468V149.387Z" fill="#1E1502"/>
<g opacity="0.3">
<path d="M154.199 149.387V150.148H157.748V155.521H158.468V149.387H154.199Z" fill="black"/>
</g>
<path d="M165.015 149.387H160.746V155.521H165.015V149.387Z" fill="#1E1502"/>
<g opacity="0.3">
<path d="M160.746 149.387V150.148H164.295V155.521H165.015V149.387H160.746Z" fill="black"/>
</g>
<path d="M171.564 149.388H167.295V155.521H171.564V149.388Z" fill="#1E1502"/>
<g opacity="0.3">
<path d="M167.295 149.388V150.148H170.843V155.521H171.564V149.388H167.295Z" fill="black"/>
</g>
<path d="M178.113 149.387H173.844V155.521H178.113V149.387Z" fill="#1E1502"/>
<g opacity="0.3">
<path d="M173.844 149.387V150.148H177.392V155.521H178.113V149.387H173.844Z" fill="black"/>
</g>
<path d="M184.659 149.387H180.391V155.521H184.659V149.387Z" fill="#1E1502"/>
<g opacity="0.3">
<path d="M180.391 149.387V150.148H183.939V155.521H184.659V149.387H180.391Z" fill="black"/>
</g>
<path d="M191.208 149.387H186.939V155.521H191.208V149.387Z" fill="#1E1502"/>
<g opacity="0.3">
<path d="M186.939 149.387V150.148H190.488V155.521H191.208V149.387H186.939Z" fill="black"/>
</g>
<path d="M135.941 149.387H131.672V155.521H135.941V149.387Z" fill="#1E1502"/>
<g opacity="0.3">
<path d="M131.672 149.387V150.148H135.22V155.521H135.941V149.387H131.672Z" fill="black"/>
</g>
<path d="M142.49 149.387H138.221V155.521H142.49V149.387Z" fill="#1E1502"/>
<g opacity="0.3">
<path d="M138.221 149.387V150.148H141.769V155.521H142.49V149.387H138.221Z" fill="black"/>
</g>
<path d="M149.038 149.387H144.77V155.521H149.038V149.387Z" fill="#1E1502"/>
<g opacity="0.3">
<path d="M144.77 149.387V150.148H148.318V155.521H149.038V149.387H144.77Z" fill="black"/>
</g>
<g opacity="0.4">
<path d="M135.941 131.173H131.672V137.307H135.941V131.173Z" fill="#FFF8EA"/>
<g opacity="0.3">
<path d="M131.672 131.173V131.934H135.22V137.307H135.941V131.173H131.672Z" fill="#FFF8EA"/>
</g>
</g>
<g opacity="0.4">
<path d="M142.49 131.173H138.221V137.307H142.49V131.173Z" fill="#FFF8EA"/>
<g opacity="0.3">
<path d="M138.221 131.173V131.934H141.769V137.307H142.49V131.173H138.221Z" fill="#FFF8EA"/>
</g>
</g>
<g opacity="0.4">
<path d="M149.038 131.173H144.77V137.307H149.038V131.173Z" fill="#FFF8EA"/>
<g opacity="0.3">
<path d="M144.77 131.173V131.934H148.318V137.307H149.038V131.173H144.77Z" fill="#FFF8EA"/>
</g>
</g>
<g opacity="0.4">
<path d="M135.941 140.281H131.672V146.414H135.941V140.281Z" fill="#FFF8EA"/>
<g opacity="0.3">
<path d="M131.672 140.281V141.041H135.22V146.414H135.941V140.281H131.672Z" fill="#FFF8EA"/>
</g>
</g>
<g opacity="0.4">
<path d="M142.49 140.281H138.221V146.414H142.49V140.281Z" fill="#FFF8EA"/>
<g opacity="0.3">
<path d="M138.221 140.281V141.041H141.769V146.414H142.49V140.281H138.221Z" fill="#FFF8EA"/>
</g>
</g>
<g opacity="0.4">
<path d="M149.038 140.281H144.77V146.414H149.038V140.281Z" fill="#FFF8EA"/>
<g opacity="0.3">
<path d="M144.77 140.281V141.041H148.318V146.414H149.038V140.281H144.77Z" fill="#FFF8EA"/>
</g>
</g>
<g opacity="0.4">
<path d="M135.941 149.387H131.672V155.521H135.941V149.387Z" fill="#FFF8EA"/>
<g opacity="0.3">
<path d="M131.672 149.387V150.148H135.22V155.521H135.941V149.387H131.672Z" fill="#FFF8EA"/>
</g>
</g>
<g opacity="0.4">
<path d="M149.038 149.387H144.77V155.521H149.038V149.387Z" fill="#FFF8EA"/>
<g opacity="0.3">
<path d="M144.77 149.387V150.148H148.318V155.521H149.038V149.387H144.77Z" fill="#FFF8EA"/>
</g>
</g>
<path d="M158.468 158.495H154.199V164.628H158.468V158.495Z" fill="#1E1502"/>
<g opacity="0.3">
<path d="M154.199 158.495V159.255H157.748V164.628H158.468V158.495H154.199Z" fill="black"/>
</g>
<path d="M165.015 158.495H160.746V164.628H165.015V158.495Z" fill="#1E1502"/>
<g opacity="0.3">
<path d="M160.746 158.495V159.255H164.295V164.628H165.015V158.495H160.746Z" fill="black"/>
</g>
<path d="M171.564 158.495H167.295V164.628H171.564V158.495Z" fill="#1E1502"/>
<g opacity="0.3">
<path d="M167.295 158.495V159.255H170.843V164.628H171.564V158.495H167.295Z" fill="black"/>
</g>
<path d="M178.113 158.495H173.844V164.628H178.113V158.495Z" fill="#1E1502"/>
<g opacity="0.3">
<path d="M173.844 158.495V159.255H177.392V164.628H178.113V158.495H173.844Z" fill="black"/>
</g>
<path d="M184.659 158.495H180.391V164.628H184.659V158.495Z" fill="#1E1502"/>
<g opacity="0.3">
<path d="M180.391 158.495V159.255H183.939V164.628H184.659V158.495H180.391Z" fill="black"/>
</g>
<path d="M191.208 158.495H186.939V164.628H191.208V158.495Z" fill="#1E1502"/>
<g opacity="0.3">
<path d="M186.939 158.495V159.255H190.488V164.628H191.208V158.495H186.939Z" fill="black"/>
</g>
<path d="M135.941 158.495H131.672V164.628H135.941V158.495Z" fill="#1E1502"/>
<g opacity="0.3">
<path d="M131.672 158.495V159.255H135.22V164.628H135.941V158.495H131.672Z" fill="black"/>
</g>
<path d="M142.49 158.495H138.221V164.628H142.49V158.495Z" fill="#1E1502"/>
<g opacity="0.3">
<path d="M138.221 158.495V159.255H141.769V164.628H142.49V158.495H138.221Z" fill="black"/>
</g>
<path d="M149.038 158.495H144.77V164.628H149.038V158.495Z" fill="#1E1502"/>
<g opacity="0.3">
<path d="M144.77 158.495V159.255H148.318V164.628H149.038V158.495H144.77Z" fill="black"/>
</g>
<path d="M158.468 167.602H154.199V173.736H158.468V167.602Z" fill="#1E1502"/>
<g opacity="0.3">
<path d="M154.199 167.602V168.362H157.748V173.736H158.468V167.602H154.199Z" fill="black"/>
</g>
<path d="M165.015 167.602H160.746V173.736H165.015V167.602Z" fill="#1E1502"/>
<g opacity="0.3">
<path d="M160.746 167.602V168.362H164.295V173.736H165.015V167.602H160.746Z" fill="black"/>
</g>
<path d="M171.564 167.602H167.295V173.736H171.564V167.602Z" fill="#1E1502"/>
<g opacity="0.3">
<path d="M167.295 167.602V168.362H170.843V173.736H171.564V167.602H167.295Z" fill="black"/>
</g>
<path d="M178.113 167.602H173.844V173.736H178.113V167.602Z" fill="#1E1502"/>
<g opacity="0.3">
<path d="M173.844 167.602V168.362H177.392V173.736H178.113V167.602H173.844Z" fill="black"/>
</g>
<path d="M184.659 167.602H180.391V173.736H184.659V167.602Z" fill="#1E1502"/>
<g opacity="0.3">
<path d="M180.391 167.602V168.362H183.939V173.736H184.659V167.602H180.391Z" fill="black"/>
</g>
<path d="M191.208 167.602H186.939V173.736H191.208V167.602Z" fill="#1E1502"/>
<g opacity="0.3">
<path d="M186.939 167.602V168.362H190.488V173.736H191.208V167.602H186.939Z" fill="black"/>
</g>
<path d="M135.941 167.602H131.672V173.736H135.941V167.602Z" fill="#1E1502"/>
<g opacity="0.3">
<path d="M131.672 167.602V168.362H135.22V173.736H135.941V167.602H131.672Z" fill="black"/>
</g>
<path d="M142.49 167.602H138.221V173.736H142.49V167.602Z" fill="#1E1502"/>
<g opacity="0.3">
<path d="M138.221 167.602V168.362H141.769V173.736H142.49V167.602H138.221Z" fill="black"/>
</g>
<path d="M149.038 167.602H144.77V173.736H149.038V167.602Z" fill="#1E1502"/>
<g opacity="0.3">
<path d="M144.77 167.602V168.362H148.318V173.736H149.038V167.602H144.77Z" fill="black"/>
</g>
<path d="M158.468 176.709H154.199V182.843H158.468V176.709Z" fill="#1E1502"/>
<g opacity="0.3">
<path d="M154.199 176.709V177.469H157.748V182.843H158.468V176.709H154.199Z" fill="black"/>
</g>
<path d="M165.015 176.709H160.746V182.843H165.015V176.709Z" fill="#1E1502"/>
<g opacity="0.3">
<path d="M160.746 176.709V177.469H164.295V182.843H165.015V176.709H160.746Z" fill="black"/>
</g>
<path d="M171.564 176.709H167.295V182.843H171.564V176.709Z" fill="#1E1502"/>
<g opacity="0.3">
<path d="M167.295 176.709V177.47H170.843V182.843H171.564V176.709H167.295Z" fill="black"/>
</g>
<path d="M178.113 176.709H173.844V182.843H178.113V176.709Z" fill="#1E1502"/>
<g opacity="0.3">
<path d="M173.844 176.709V177.469H177.392V182.843H178.113V176.709H173.844Z" fill="black"/>
</g>
<path d="M184.659 176.709H180.391V182.843H184.659V176.709Z" fill="#1E1502"/>
<g opacity="0.3">
<path d="M180.391 176.709V177.469H183.939V182.843H184.659V176.709H180.391Z" fill="black"/>
</g>
<path d="M191.208 176.709H186.939V182.843H191.208V176.709Z" fill="#1E1502"/>
<g opacity="0.3">
<path d="M186.939 176.709V177.469H190.488V182.843H191.208V176.709H186.939Z" fill="black"/>
</g>
<path d="M135.941 176.709H131.672V182.843H135.941V176.709Z" fill="#1E1502"/>
<g opacity="0.3">
<path d="M131.672 176.709V177.469H135.22V182.843H135.941V176.709H131.672Z" fill="black"/>
</g>
<path d="M142.49 176.709H138.221V182.843H142.49V176.709Z" fill="#1E1502"/>
<g opacity="0.3">
<path d="M138.221 176.709V177.469H141.769V182.843H142.49V176.709H138.221Z" fill="black"/>
</g>
<path d="M149.038 176.709H144.77V182.843H149.038V176.709Z" fill="#1E1502"/>
<g opacity="0.3">
<path d="M144.77 176.709V177.469H148.318V182.843H149.038V176.709H144.77Z" fill="black"/>
</g>
<path d="M158.468 190.172H154.199V196.306H158.468V190.172Z" fill="#1E1502"/>
<g opacity="0.3">
<path d="M154.199 190.172V190.932H157.748V196.305H158.468V190.172H154.199Z" fill="black"/>
</g>
<path d="M165.015 190.172H160.746V196.306H165.015V190.172Z" fill="#1E1502"/>
<g opacity="0.3">
<path d="M160.746 190.172V190.932H164.295V196.305H165.015V190.172H160.746Z" fill="black"/>
</g>
<path d="M171.564 190.172H167.295V196.306H171.564V190.172Z" fill="#1E1502"/>
<g opacity="0.3">
<path d="M167.295 190.172V190.932H170.843V196.305H171.564V190.172H167.295Z" fill="black"/>
</g>
<path d="M178.113 190.172H173.844V196.306H178.113V190.172Z" fill="#1E1502"/>
<g opacity="0.3">
<path d="M173.844 190.172V190.932H177.392V196.305H178.113V190.172H173.844Z" fill="black"/>
</g>
<path d="M184.659 190.172H180.391V196.306H184.659V190.172Z" fill="#1E1502"/>
<g opacity="0.3">
<path d="M180.391 190.172V190.932H183.939V196.305H184.659V190.172H180.391Z" fill="black"/>
</g>
<path d="M191.208 190.172H186.939V196.306H191.208V190.172Z" fill="#1E1502"/>
<g opacity="0.3">
<path d="M186.939 190.172V190.932H190.488V196.305H191.208V190.172H186.939Z" fill="black"/>
</g>
<path d="M135.941 190.172H131.672V196.306H135.941V190.172Z" fill="#1E1502"/>
<g opacity="0.3">
<path d="M131.672 190.172V190.932H135.22V196.305H135.941V190.172H131.672Z" fill="black"/>
</g>
<path d="M142.49 190.172H138.221V196.306H142.49V190.172Z" fill="#1E1502"/>
<g opacity="0.3">
<path d="M138.221 190.172V190.932H141.769V196.305H142.49V190.172H138.221Z" fill="black"/>
</g>
<path d="M149.038 190.172H144.77V196.306H149.038V190.172Z" fill="#1E1502"/>
<g opacity="0.3">
<path d="M144.77 190.172V190.932H148.318V196.305H149.038V190.172H144.77Z" fill="black"/>
</g>
<path d="M158.468 198.966H154.199V205.1H158.468V198.966Z" fill="#1E1502"/>
<g opacity="0.3">
<path d="M154.199 198.966V199.727H157.748V205.099H158.468V198.966H154.199Z" fill="black"/>
</g>
<path d="M165.015 198.966H160.746V205.1H165.015V198.966Z" fill="#1E1502"/>
<g opacity="0.3">
<path d="M160.746 198.966V199.727H164.295V205.099H165.015V198.966H160.746Z" fill="black"/>
</g>
<path d="M171.564 198.966H167.295V205.1H171.564V198.966Z" fill="#1E1502"/>
<g opacity="0.3">
<path d="M167.295 198.966V199.727H170.843V205.099H171.564V198.966H167.295Z" fill="black"/>
</g>
<path d="M178.113 198.966H173.844V205.1H178.113V198.966Z" fill="#1E1502"/>
<g opacity="0.3">
<path d="M173.844 198.966V199.727H177.392V205.099H178.113V198.966H173.844Z" fill="black"/>
</g>
<path d="M184.659 198.966H180.391V205.1H184.659V198.966Z" fill="#1E1502"/>
<g opacity="0.3">
<path d="M180.391 198.966V199.727H183.939V205.099H184.659V198.966H180.391Z" fill="black"/>
</g>
<path d="M191.208 198.966H186.939V205.1H191.208V198.966Z" fill="#1E1502"/>
<g opacity="0.3">
<path d="M186.939 198.966V199.727H190.488V205.099H191.208V198.966H186.939Z" fill="black"/>
</g>
<path d="M135.941 198.966H131.672V205.1H135.941V198.966Z" fill="#1E1502"/>
<g opacity="0.3">
<path d="M131.672 198.966V199.727H135.22V205.099H135.941V198.966H131.672Z" fill="black"/>
</g>
<path d="M142.49 198.966H138.221V205.1H142.49V198.966Z" fill="#1E1502"/>
<g opacity="0.3">
<path d="M138.221 198.966V199.727H141.769V205.099H142.49V198.966H138.221Z" fill="black"/>
</g>
<path d="M149.038 198.966H144.77V205.1H149.038V198.966Z" fill="#1E1502"/>
<g opacity="0.3">
<path d="M144.77 198.966V199.727H148.318V205.099H149.038V198.966H144.77Z" fill="black"/>
</g>
<path d="M158.468 207.761H154.199V213.895H158.468V207.761Z" fill="#1E1502"/>
<g opacity="0.3">
<path d="M154.199 207.761V208.521H157.748V213.895H158.468V207.761H154.199Z" fill="black"/>
</g>
<path d="M165.015 207.761H160.746V213.895H165.015V207.761Z" fill="#1E1502"/>
<g opacity="0.3">
<path d="M160.746 207.761V208.521H164.295V213.895H165.015V207.761H160.746Z" fill="black"/>
</g>
<path d="M171.564 207.761H167.295V213.895H171.564V207.761Z" fill="#1E1502"/>
<g opacity="0.3">
<path d="M167.295 207.761V208.521H170.843V213.895H171.564V207.761H167.295Z" fill="black"/>
</g>
<path d="M178.113 207.761H173.844V213.895H178.113V207.761Z" fill="#1E1502"/>
<g opacity="0.3">
<path d="M173.844 207.761V208.521H177.392V213.895H178.113V207.761H173.844Z" fill="black"/>
</g>
<path d="M184.659 207.761H180.391V213.895H184.659V207.761Z" fill="#1E1502"/>
<g opacity="0.3">
<path d="M180.391 207.761V208.521H183.939V213.895H184.659V207.761H180.391Z" fill="black"/>
</g>
<path d="M191.208 207.761H186.939V213.895H191.208V207.761Z" fill="#1E1502"/>
<g opacity="0.3">
<path d="M186.939 207.761V208.521H190.488V213.895H191.208V207.761H186.939Z" fill="black"/>
</g>
<path d="M135.941 207.761H131.672V213.895H135.941V207.761Z" fill="#1E1502"/>
<g opacity="0.3">
<path d="M131.672 207.761V208.522H135.22V213.895H135.941V207.761H131.672Z" fill="black"/>
</g>
<path d="M142.49 207.761H138.221V213.895H142.49V207.761Z" fill="#1E1502"/>
<g opacity="0.3">
<path d="M138.221 207.761V208.522H141.769V213.895H142.49V207.761H138.221Z" fill="black"/>
</g>
<path d="M149.038 207.761H144.77V213.895H149.038V207.761Z" fill="#1E1502"/>
<g opacity="0.3">
<path d="M144.77 207.761V208.522H148.318V213.895H149.038V207.761H144.77Z" fill="black"/>
</g>
<path d="M158.468 216.555H154.199V222.689H158.468V216.555Z" fill="#1E1502"/>
<g opacity="0.3">
<path d="M154.199 216.555V217.316H157.748V222.689H158.468V216.555H154.199Z" fill="black"/>
</g>
<path d="M165.015 216.555H160.746V222.689H165.015V216.555Z" fill="#1E1502"/>
<g opacity="0.3">
<path d="M160.746 216.555V217.316H164.295V222.689H165.015V216.555H160.746Z" fill="black"/>
</g>
<path d="M171.564 216.555H167.295V222.689H171.564V216.555Z" fill="#1E1502"/>
<g opacity="0.3">
<path d="M167.295 216.555V217.316H170.843V222.689H171.564V216.555H167.295Z" fill="black"/>
</g>
<path d="M178.113 216.555H173.844V222.689H178.113V216.555Z" fill="#1E1502"/>
<g opacity="0.3">
<path d="M173.844 216.555V217.316H177.392V222.689H178.113V216.555H173.844Z" fill="black"/>
</g>
<path d="M184.659 216.555H180.391V222.689H184.659V216.555Z" fill="#1E1502"/>
<g opacity="0.3">
<path d="M180.391 216.555V217.316H183.939V222.689H184.659V216.555H180.391Z" fill="black"/>
</g>
<path d="M191.208 216.555H186.939V222.689H191.208V216.555Z" fill="#1E1502"/>
<g opacity="0.3">
<path d="M186.939 216.555V217.316H190.488V222.689H191.208V216.555H186.939Z" fill="black"/>
</g>
<path d="M135.941 216.556H131.672V222.689H135.941V216.556Z" fill="#1E1502"/>
<g opacity="0.3">
<path d="M131.672 216.556V217.316H135.22V222.689H135.941V216.556H131.672Z" fill="black"/>
</g>
<path d="M142.49 216.556H138.221V222.689H142.49V216.556Z" fill="#1E1502"/>
<g opacity="0.3">
<path d="M138.221 216.556V217.316H141.769V222.689H142.49V216.556H138.221Z" fill="black"/>
</g>
<path d="M149.038 216.556H144.77V222.689H149.038V216.556Z" fill="#1E1502"/>
<g opacity="0.3">
<path d="M144.77 216.556V217.316H148.318V222.689H149.038V216.556H144.77Z" fill="black"/>
</g>
<path d="M158.468 225.35H154.199V231.484H158.468V225.35Z" fill="#1E1502"/>
<g opacity="0.3">
<path d="M154.199 225.35V226.111H157.748V231.484H158.468V225.35H154.199Z" fill="black"/>
</g>
<path d="M165.015 225.35H160.746V231.484H165.015V225.35Z" fill="#1E1502"/>
<g opacity="0.3">
<path d="M160.746 225.35V226.111H164.295V231.484H165.015V225.35H160.746Z" fill="black"/>
</g>
<path d="M171.564 225.35H167.295V231.484H171.564V225.35Z" fill="#1E1502"/>
<g opacity="0.3">
<path d="M167.295 225.35V226.111H170.843V231.484H171.564V225.35H167.295Z" fill="black"/>
</g>
<path d="M178.113 225.35H173.844V231.484H178.113V225.35Z" fill="#1E1502"/>
<g opacity="0.3">
<path d="M173.844 225.35V226.111H177.392V231.484H178.113V225.35H173.844Z" fill="black"/>
</g>
<path d="M184.659 225.35H180.391V231.484H184.659V225.35Z" fill="#1E1502"/>
<g opacity="0.3">
<path d="M180.391 225.35V226.111H183.939V231.484H184.659V225.35H180.391Z" fill="black"/>
</g>
<path d="M191.208 225.35H186.939V231.484H191.208V225.35Z" fill="#1E1502"/>
<g opacity="0.3">
<path d="M186.939 225.35V226.111H190.488V231.484H191.208V225.35H186.939Z" fill="black"/>
</g>
<path d="M135.941 225.35H131.672V231.484H135.941V225.35Z" fill="#1E1502"/>
<g opacity="0.3">
<path d="M131.672 225.35V226.111H135.22V231.484H135.941V225.35H131.672Z" fill="black"/>
</g>
<path d="M142.49 225.35H138.221V231.484H142.49V225.35Z" fill="#1E1502"/>
<g opacity="0.3">
<path d="M138.221 225.35V226.111H141.769V231.484H142.49V225.35H138.221Z" fill="black"/>
</g>
<path d="M149.038 225.35H144.77V231.484H149.038V225.35Z" fill="#1E1502"/>
<g opacity="0.3">
<path d="M144.77 225.35V226.111H148.318V231.484H149.038V225.35H144.77Z" fill="black"/>
</g>
<path d="M158.468 234.145H154.199V240.278H158.468V234.145Z" fill="#1E1502"/>
<g opacity="0.3">
<path d="M154.199 234.145V234.905H157.748V240.278H158.468V234.145H154.199Z" fill="black"/>
</g>
<path d="M165.015 234.145H160.746V240.278H165.015V234.145Z" fill="#1E1502"/>
<g opacity="0.3">
<path d="M160.746 234.145V234.905H164.295V240.278H165.015V234.145H160.746Z" fill="black"/>
</g>
<path d="M171.564 234.145H167.295V240.278H171.564V234.145Z" fill="#1E1502"/>
<g opacity="0.3">
<path d="M167.295 234.145V234.905H170.843V240.278H171.564V234.145H167.295Z" fill="black"/>
</g>
<path d="M178.113 234.145H173.844V240.278H178.113V234.145Z" fill="#1E1502"/>
<g opacity="0.3">
<path d="M173.844 234.145V234.905H177.392V240.278H178.113V234.145H173.844Z" fill="black"/>
</g>
<path d="M184.659 234.145H180.391V240.278H184.659V234.145Z" fill="#1E1502"/>
<g opacity="0.3">
<path d="M180.391 234.145V234.905H183.939V240.278H184.659V234.145H180.391Z" fill="black"/>
</g>
<path d="M191.208 234.145H186.939V240.278H191.208V234.145Z" fill="#1E1502"/>
<g opacity="0.3">
<path d="M186.939 234.145V234.905H190.488V240.278H191.208V234.145H186.939Z" fill="black"/>
</g>
<path d="M135.941 234.144H131.672V240.278H135.941V234.144Z" fill="#1E1502"/>
<g opacity="0.3">
<path d="M131.672 234.144V234.905H135.22V240.278H135.941V234.144H131.672Z" fill="black"/>
</g>
<path d="M142.49 234.144H138.221V240.278H142.49V234.144Z" fill="#1E1502"/>
<g opacity="0.3">
<path d="M138.221 234.144V234.905H141.769V240.278H142.49V234.144H138.221Z" fill="black"/>
</g>
<path d="M149.038 234.144H144.77V240.278H149.038V234.144Z" fill="#1E1502"/>
<g opacity="0.3">
<path d="M144.77 234.144V234.905H148.318V240.278H149.038V234.144H144.77Z" fill="black"/>
</g>
<path d="M158.468 245.673H154.199V251.807H158.468V245.673Z" fill="#1E1502"/>
<g opacity="0.3">
<path d="M154.199 245.673V246.433H157.748V251.807H158.468V245.673H154.199Z" fill="black"/>
</g>
<path d="M165.015 245.673H160.746V251.807H165.015V245.673Z" fill="#1E1502"/>
<g opacity="0.3">
<path d="M160.746 245.673V246.433H164.295V251.807H165.015V245.673H160.746Z" fill="black"/>
</g>
<path d="M171.564 245.673H167.295V251.807H171.564V245.673Z" fill="#1E1502"/>
<g opacity="0.3">
<path d="M167.295 245.673V246.433H170.843V251.807H171.564V245.673H167.295Z" fill="black"/>
</g>
<path d="M178.113 245.673H173.844V251.807H178.113V245.673Z" fill="#1E1502"/>
<g opacity="0.3">
<path d="M173.844 245.673V246.433H177.392V251.807H178.113V245.673H173.844Z" fill="black"/>
</g>
<path d="M184.659 245.673H180.391V251.807H184.659V245.673Z" fill="#1E1502"/>
<g opacity="0.3">
<path d="M180.391 245.673V246.433H183.939V251.807H184.659V245.673H180.391Z" fill="black"/>
</g>
<path d="M191.208 245.673H186.939V251.807H191.208V245.673Z" fill="#1E1502"/>
<g opacity="0.3">
<path d="M186.939 245.673V246.433H190.488V251.807H191.208V245.673H186.939Z" fill="black"/>
</g>
<path d="M135.941 245.673H131.672V251.807H135.941V245.673Z" fill="#1E1502"/>
<g opacity="0.3">
<path d="M131.672 245.673V246.433H135.22V251.807H135.941V245.673H131.672Z" fill="black"/>
</g>
<path d="M142.49 245.673H138.221V251.807H142.49V245.673Z" fill="#1E1502"/>
<g opacity="0.3">
<path d="M138.221 245.673V246.433H141.769V251.807H142.49V245.673H138.221Z" fill="black"/>
</g>
<path d="M149.038 245.673H144.77V251.807H149.038V245.673Z" fill="#1E1502"/>
<g opacity="0.3">
<path d="M144.77 245.673V246.433H148.318V251.807H149.038V245.673H144.77Z" fill="black"/>
</g>
<path d="M158.468 254.467H154.199V260.601H158.468V254.467Z" fill="#1E1502"/>
<g opacity="0.3">
<path d="M154.199 254.467V255.228H157.748V260.601H158.468V254.467H154.199Z" fill="black"/>
</g>
<path d="M165.015 254.467H160.746V260.601H165.015V254.467Z" fill="#1E1502"/>
<g opacity="0.3">
<path d="M160.746 254.467V255.228H164.295V260.601H165.015V254.467H160.746Z" fill="black"/>
</g>
<path d="M171.564 254.467H167.295V260.601H171.564V254.467Z" fill="#1E1502"/>
<g opacity="0.3">
<path d="M167.295 254.467V255.228H170.843V260.601H171.564V254.467H167.295Z" fill="black"/>
</g>
<path d="M178.113 254.467H173.844V260.601H178.113V254.467Z" fill="#1E1502"/>
<g opacity="0.3">
<path d="M173.844 254.467V255.228H177.392V260.601H178.113V254.467H173.844Z" fill="black"/>
</g>
<path d="M184.659 254.467H180.391V260.601H184.659V254.467Z" fill="#1E1502"/>
<g opacity="0.3">
<path d="M180.391 254.467V255.228H183.939V260.601H184.659V254.467H180.391Z" fill="black"/>
</g>
<path d="M191.208 254.467H186.939V260.601H191.208V254.467Z" fill="#1E1502"/>
<g opacity="0.3">
<path d="M186.939 254.467V255.228H190.488V260.601H191.208V254.467H186.939Z" fill="black"/>
</g>
<path d="M135.941 254.467H131.672V260.601H135.941V254.467Z" fill="#1E1502"/>
<g opacity="0.3">
<path d="M131.672 254.467V255.228H135.22V260.601H135.941V254.467H131.672Z" fill="black"/>
</g>
<path d="M142.49 254.467H138.221V260.601H142.49V254.467Z" fill="#1E1502"/>
<g opacity="0.3">
<path d="M138.221 254.467V255.228H141.769V260.601H142.49V254.467H138.221Z" fill="black"/>
</g>
<path d="M149.038 254.467H144.77V260.601H149.038V254.467Z" fill="#1E1502"/>
<g opacity="0.3">
<path d="M144.77 254.467V255.228H148.318V260.601H149.038V254.467H144.77Z" fill="black"/>
</g>
<path d="M158.468 263.262H154.199V269.396H158.468V263.262Z" fill="#1E1502"/>
<g opacity="0.3">
<path d="M154.199 263.262V264.022H157.748V269.396H158.468V263.262H154.199Z" fill="black"/>
</g>
<path d="M165.015 263.262H160.746V269.396H165.015V263.262Z" fill="#1E1502"/>
<g opacity="0.3">
<path d="M160.746 263.262V264.022H164.295V269.396H165.015V263.262H160.746Z" fill="black"/>
</g>
<path d="M171.564 263.262H167.295V269.396H171.564V263.262Z" fill="#1E1502"/>
<g opacity="0.3">
<path d="M167.295 263.262V264.022H170.843V269.396H171.564V263.262H167.295Z" fill="black"/>
</g>
<path d="M178.113 263.262H173.844V269.396H178.113V263.262Z" fill="#1E1502"/>
<g opacity="0.3">
<path d="M173.844 263.262V264.022H177.392V269.396H178.113V263.262H173.844Z" fill="black"/>
</g>
<path d="M184.659 263.262H180.391V269.396H184.659V263.262Z" fill="#1E1502"/>
<g opacity="0.3">
<path d="M180.391 263.262V264.022H183.939V269.396H184.659V263.262H180.391Z" fill="black"/>
</g>
<path d="M191.208 263.262H186.939V269.396H191.208V263.262Z" fill="#1E1502"/>
<g opacity="0.3">
<path d="M186.939 263.262V264.022H190.488V269.396H191.208V263.262H186.939Z" fill="black"/>
</g>
<path d="M135.941 263.262H131.672V269.395H135.941V263.262Z" fill="#1E1502"/>
<g opacity="0.3">
<path d="M131.672 263.262V264.022H135.22V269.395H135.941V263.262H131.672Z" fill="black"/>
</g>
<path d="M142.49 263.262H138.221V269.395H142.49V263.262Z" fill="#1E1502"/>
<g opacity="0.3">
<path d="M138.221 263.262V264.022H141.769V269.395H142.49V263.262H138.221Z" fill="black"/>
</g>
<path d="M149.038 263.262H144.77V269.395H149.038V263.262Z" fill="#1E1502"/>
<g opacity="0.3">
<path d="M144.77 263.262V264.022H148.318V269.395H149.038V263.262H144.77Z" fill="black"/>
</g>
<path d="M158.468 272.056H154.199V278.19H158.468V272.056Z" fill="#1E1502"/>
<g opacity="0.3">
<path d="M154.199 272.056V272.817H157.748V278.19H158.468V272.056H154.199Z" fill="black"/>
</g>
<path d="M165.015 272.056H160.746V278.19H165.015V272.056Z" fill="#1E1502"/>
<g opacity="0.3">
<path d="M160.746 272.056V272.817H164.295V278.19H165.015V272.056H160.746Z" fill="black"/>
</g>
<path d="M171.564 272.056H167.295V278.19H171.564V272.056Z" fill="#1E1502"/>
<g opacity="0.3">
<path d="M167.295 272.056V272.817H170.843V278.19H171.564V272.056H167.295Z" fill="black"/>
</g>
<path d="M178.113 272.056H173.844V278.19H178.113V272.056Z" fill="#1E1502"/>
<g opacity="0.3">
<path d="M173.844 272.056V272.817H177.392V278.19H178.113V272.056H173.844Z" fill="black"/>
</g>
<path d="M184.659 272.056H180.391V278.19H184.659V272.056Z" fill="#1E1502"/>
<g opacity="0.3">
<path d="M180.391 272.056V272.817H183.939V278.19H184.659V272.056H180.391Z" fill="black"/>
</g>
<path d="M191.208 272.056H186.939V278.19H191.208V272.056Z" fill="#1E1502"/>
<g opacity="0.3">
<path d="M186.939 272.056V272.817H190.488V278.19H191.208V272.056H186.939Z" fill="black"/>
</g>
<path d="M135.941 272.056H131.672V278.19H135.941V272.056Z" fill="#1E1502"/>
<g opacity="0.3">
<path d="M131.672 272.056V272.817H135.22V278.19H135.941V272.056H131.672Z" fill="black"/>
</g>
<path d="M142.49 272.056H138.221V278.19H142.49V272.056Z" fill="#1E1502"/>
<g opacity="0.3">
<path d="M138.221 272.056V272.817H141.769V278.19H142.49V272.056H138.221Z" fill="black"/>
</g>
<path d="M149.038 272.056H144.77V278.19H149.038V272.056Z" fill="#1E1502"/>
<g opacity="0.3">
<path d="M144.77 272.056V272.817H148.318V278.19H149.038V272.056H144.77Z" fill="black"/>
</g>
<path d="M158.468 280.851H154.199V286.985H158.468V280.851Z" fill="#1E1502"/>
<g opacity="0.3">
<path d="M154.199 280.851V281.611H157.748V286.985H158.468V280.851H154.199Z" fill="black"/>
</g>
<path d="M165.015 280.851H160.746V286.985H165.015V280.851Z" fill="#1E1502"/>
<g opacity="0.3">
<path d="M160.746 280.851V281.611H164.295V286.985H165.015V280.851H160.746Z" fill="black"/>
</g>
<path d="M171.564 280.851H167.295V286.985H171.564V280.851Z" fill="#1E1502"/>
<g opacity="0.3">
<path d="M167.295 280.851V281.611H170.843V286.985H171.564V280.851H167.295Z" fill="black"/>
</g>
<path d="M178.113 280.851H173.844V286.985H178.113V280.851Z" fill="#1E1502"/>
<g opacity="0.3">
<path d="M173.844 280.851V281.611H177.392V286.985H178.113V280.851H173.844Z" fill="black"/>
</g>
<path d="M184.659 280.851H180.391V286.985H184.659V280.851Z" fill="#1E1502"/>
<g opacity="0.3">
<path d="M180.391 280.851V281.611H183.939V286.985H184.659V280.851H180.391Z" fill="black"/>
</g>
<path d="M191.208 280.851H186.939V286.985H191.208V280.851Z" fill="#1E1502"/>
<g opacity="0.3">
<path d="M186.939 280.851V281.611H190.488V286.985H191.208V280.851H186.939Z" fill="black"/>
</g>
<path d="M135.941 280.851H131.672V286.985H135.941V280.851Z" fill="#1E1502"/>
<g opacity="0.3">
<path d="M131.672 280.851V281.612H135.22V286.985H135.941V280.851H131.672Z" fill="black"/>
</g>
<path d="M142.49 280.851H138.221V286.985H142.49V280.851Z" fill="#1E1502"/>
<g opacity="0.3">
<path d="M138.221 280.851V281.612H141.769V286.985H142.49V280.851H138.221Z" fill="black"/>
</g>
<path d="M149.038 280.851H144.77V286.985H149.038V280.851Z" fill="#1E1502"/>
<g opacity="0.3">
<path d="M144.77 280.851V281.612H148.318V286.985H149.038V280.851H144.77Z" fill="black"/>
</g>
<path d="M158.468 289.645H154.199V295.779H158.468V289.645Z" fill="#1E1502"/>
<g opacity="0.3">
<path d="M154.199 289.645V290.406H157.748V295.779H158.468V289.645H154.199Z" fill="black"/>
</g>
<path d="M165.015 289.645H160.746V295.779H165.015V289.645Z" fill="#1E1502"/>
<g opacity="0.3">
<path d="M160.746 289.645V290.406H164.295V295.779H165.015V289.645H160.746Z" fill="black"/>
</g>
<path d="M171.564 289.645H167.295V295.779H171.564V289.645Z" fill="#1E1502"/>
<g opacity="0.3">
<path d="M167.295 289.645V290.406H170.843V295.779H171.564V289.645H167.295Z" fill="black"/>
</g>
<path d="M178.113 289.645H173.844V295.779H178.113V289.645Z" fill="#1E1502"/>
<g opacity="0.3">
<path d="M173.844 289.645V290.406H177.392V295.779H178.113V289.645H173.844Z" fill="black"/>
</g>
<path d="M184.659 289.645H180.391V295.779H184.659V289.645Z" fill="#1E1502"/>
<g opacity="0.3">
<path d="M180.391 289.645V290.406H183.939V295.779H184.659V289.645H180.391Z" fill="black"/>
</g>
<path d="M191.208 289.645H186.939V295.779H191.208V289.645Z" fill="#1E1502"/>
<g opacity="0.3">
<path d="M186.939 289.645V290.406H190.488V295.779H191.208V289.645H186.939Z" fill="black"/>
</g>
<path d="M135.941 289.645H131.672V295.779H135.941V289.645Z" fill="#1E1502"/>
<g opacity="0.3">
<path d="M131.672 289.645V290.406H135.22V295.779H135.941V289.645H131.672Z" fill="black"/>
</g>
<path d="M142.49 289.645H138.221V295.779H142.49V289.645Z" fill="#1E1502"/>
<g opacity="0.3">
<path d="M138.221 289.645V290.406H141.769V295.779H142.49V289.645H138.221Z" fill="black"/>
</g>
<path d="M149.038 289.645H144.77V295.779H149.038V289.645Z" fill="#1E1502"/>
<g opacity="0.3">
<path d="M144.77 289.645V290.406H148.318V295.779H149.038V289.645H144.77Z" fill="black"/>
</g>
<g opacity="0.4">
<path d="M158.468 131.173H154.199V137.307H158.468V131.173Z" fill="#FFF8EA"/>
</g>
<g opacity="0.4">
<path d="M165.015 131.173H160.746V137.307H165.015V131.173Z" fill="#FFF8EA"/>
</g>
<g opacity="0.4">
<path d="M171.564 131.173H167.295V137.307H171.564V131.173Z" fill="#FFF8EA"/>
</g>
<g opacity="0.4">
<path d="M178.113 131.173H173.844V137.307H178.113V131.173Z" fill="#FFF8EA"/>
</g>
<g opacity="0.4">
<path d="M184.659 131.173H180.391V137.307H184.659V131.173Z" fill="#FFF8EA"/>
</g>
<g opacity="0.4">
<path d="M191.208 131.173H186.939V137.307H191.208V131.173Z" fill="#FFF8EA"/>
</g>
<g opacity="0.4">
<path d="M158.468 140.28H154.199V146.414H158.468V140.28Z" fill="#FFF8EA"/>
</g>
<g opacity="0.4">
<path d="M165.015 140.28H160.746V146.414H165.015V140.28Z" fill="#FFF8EA"/>
</g>
<g opacity="0.4">
<path d="M171.564 140.28H167.295V146.414H171.564V140.28Z" fill="#FFF8EA"/>
</g>
<g opacity="0.4">
<path d="M178.113 140.28H173.844V146.414H178.113V140.28Z" fill="#FFF8EA"/>
</g>
<g opacity="0.4">
<path d="M184.659 140.28H180.391V146.414H184.659V140.28Z" fill="#FFF8EA"/>
</g>
<g opacity="0.4">
<path d="M191.208 140.28H186.939V146.414H191.208V140.28Z" fill="#FFF8EA"/>
</g>
<g opacity="0.4">
<path d="M158.468 149.387H154.199V155.521H158.468V149.387Z" fill="#FFF8EA"/>
</g>
<g opacity="0.4">
<path d="M165.015 149.387H160.746V155.521H165.015V149.387Z" fill="#FFF8EA"/>
</g>
<g opacity="0.4">
<path d="M184.659 149.387H180.391V155.521H184.659V149.387Z" fill="#FFF8EA"/>
</g>
<g opacity="0.4">
<path d="M158.468 158.495H154.199V164.628H158.468V158.495Z" fill="#FFF8EA"/>
</g>
<g opacity="0.4">
<path d="M184.659 158.495H180.391V164.628H184.659V158.495Z" fill="#FFF8EA"/>
</g>
<g opacity="0.3">
<path d="M151.168 124.51H128.947V299.653H151.168V124.51Z" fill="black"/>
</g>
<path d="M117.063 299.477H154.387V197.609H117.063L117.063 299.477Z" fill="#CC6E5E"/>
<path d="M98.0035 299.477H117.064L117.064 197.609H98.0035L98.0035 299.477Z" fill="#CC6E5E"/>
<path d="M130.251 207.5H122.574V217.888H130.251V207.5Z" fill="#1E1502"/>
<g opacity="0.3">
<path d="M122.574 207.5V208.788H128.956V217.889H130.251V207.5H122.574Z" fill="black"/>
</g>
<path d="M130.698 217.888H122.574V220H130.698V217.888Z" fill="#FFF8EA"/>
<path d="M130.698 205.326H122.574V207.438H130.698V205.326Z" fill="#FFF8EA"/>
<path d="M147.947 217.888H139.822V220H147.947V217.888Z" fill="#FFF8EA"/>
<path d="M147.947 205.326H139.822V207.438H147.947V205.326Z" fill="#FFF8EA"/>
<path d="M147.497 207.5H139.82V217.888H147.497V207.5Z" fill="#1E1502"/>
<g opacity="0.3">
<path d="M139.82 207.5V208.788H146.202V217.889H147.497V207.5H139.82Z" fill="black"/>
</g>
<path d="M130.251 226.767H122.574V237.155H130.251V226.767Z" fill="#1E1502"/>
<g opacity="0.3">
<path d="M122.574 226.767V228.056H128.956V237.155H130.251V226.767H122.574Z" fill="black"/>
</g>
<path d="M130.698 237.155H122.574V239.267H130.698V237.155Z" fill="#FFF8EA"/>
<path d="M130.698 224.593H122.574V226.705H130.698V224.593Z" fill="#FFF8EA"/>
<path d="M147.947 237.155H139.822V239.267H147.947V237.155Z" fill="#FFF8EA"/>
<path d="M147.947 224.593H139.822V226.705H147.947V224.593Z" fill="#FFF8EA"/>
<path d="M147.497 226.768H139.82V237.156H147.497V226.768Z" fill="#1E1502"/>
<g opacity="0.3">
<path d="M139.82 226.768V228.056H146.202V237.156H147.497V226.768H139.82Z" fill="black"/>
</g>
<path d="M130.251 246.718H122.574V257.106H130.251V246.718Z" fill="#1E1502"/>
<g opacity="0.3">
<path d="M122.574 246.718V248.006H128.956V257.107H130.251V246.718H122.574Z" fill="black"/>
</g>
<path d="M130.698 257.107H122.574V259.219H130.698V257.107Z" fill="#FFF8EA"/>
<path d="M130.698 244.545H122.574V246.656H130.698V244.545Z" fill="#FFF8EA"/>
<path d="M147.947 257.107H139.822V259.219H147.947V257.107Z" fill="#FFF8EA"/>
<path d="M147.947 244.545H139.822V246.656H147.947V244.545Z" fill="#FFF8EA"/>
<path d="M147.497 246.718H139.82V257.106H147.497V246.718Z" fill="#1E1502"/>
<g opacity="0.3">
<path d="M139.82 246.718V248.006H146.202V257.107H147.497V246.718H139.82Z" fill="black"/>
</g>
<path d="M130.251 266.531H122.574V276.919H130.251V266.531Z" fill="#1E1502"/>
<g opacity="0.3">
<path d="M122.574 266.531V267.819H128.956V276.919H130.251V266.531H122.574Z" fill="black"/>
</g>
<path d="M130.698 276.919H122.574V279.031H130.698V276.919Z" fill="#FFF8EA"/>
<path d="M130.698 264.357H122.574V266.469H130.698V264.357Z" fill="#FFF8EA"/>
<path d="M147.947 276.919H139.822V279.031H147.947V276.919Z" fill="#FFF8EA"/>
<path d="M147.947 264.357H139.822V266.469H147.947V264.357Z" fill="#FFF8EA"/>
<path d="M147.497 266.531H139.82V276.919H147.497V266.531Z" fill="#1E1502"/>
<g opacity="0.3">
<path d="M139.82 266.531V267.819H146.202V276.919H147.497V266.531H139.82Z" fill="black"/>
</g>
<path d="M112.064 207.159H109.375V217.546H112.064V207.159Z" fill="#263238"/>
<path d="M112.446 217.546H107.535V219.112H112.446V217.546Z" fill="#FFF8EA"/>
<path d="M104.864 207.159H102.174V217.546H104.864V207.159Z" fill="#263238"/>
<path d="M105.244 217.546H100.334V219.112H105.244V217.546Z" fill="#FFF8EA"/>
<path d="M112.064 226.95H109.375V237.338H112.064V226.95Z" fill="#263238"/>
<path d="M112.446 237.338H107.535V238.904H112.446V237.338Z" fill="#FFF8EA"/>
<path d="M104.864 226.95H102.174V237.338H104.864V226.95Z" fill="#263238"/>
<path d="M105.244 237.338H100.334V238.904H105.244V237.338Z" fill="#FFF8EA"/>
<path d="M112.064 246.742H109.375V257.13H112.064V246.742Z" fill="#263238"/>
<path d="M112.446 257.13H107.535V258.695H112.446V257.13Z" fill="#FFF8EA"/>
<path d="M104.864 246.742H102.174V257.13H104.864V246.742Z" fill="#263238"/>
<path d="M105.244 257.13H100.334V258.695H105.244V257.13Z" fill="#FFF8EA"/>
<path d="M130.251 283.082H122.574V299.476H130.251V283.082Z" fill="#1E1502"/>
<g opacity="0.3">
<path d="M122.574 283.082V284.312H128.956V299.477H130.251V283.082H122.574Z" fill="black"/>
</g>
<path d="M147.724 283.082H140.047V299.476H147.724V283.082Z" fill="#1E1502"/>
<g opacity="0.3">
<path d="M140.047 283.082V284.312H146.428V299.477H147.724V283.082H140.047Z" fill="black"/>
</g>
<path d="M112.064 266.533H109.375V276.921H112.064V266.533Z" fill="#263238"/>
<path d="M112.446 276.922H107.535V278.487H112.446V276.922Z" fill="#FFF8EA"/>
<path d="M104.864 266.533H102.174V276.921H104.864V266.533Z" fill="#263238"/>
<path d="M105.244 276.922H100.334V278.487H105.244V276.922Z" fill="#FFF8EA"/>
<path d="M112.064 283.926H109.375V294.314H112.064V283.926Z" fill="#263238"/>
<path d="M112.446 294.314H107.535V295.879H112.446V294.314Z" fill="#FFF8EA"/>
<path d="M104.864 283.926H102.174V294.314H104.864V283.926Z" fill="#263238"/>
<path d="M105.244 294.314H100.334V295.879H105.244V294.314Z" fill="#FFF8EA"/>
<g opacity="0.3">
<path d="M97.4567 299.477H117.062L117.063 197.609H97.4567L97.4567 299.477Z" fill="black"/>
</g>
<path d="M397.245 256.958H316.18V299.84H397.245V256.958Z" fill="#CC6E5E"/>
<path d="M398.957 256.958H315.15V260.965H398.957V256.958Z" fill="#FFF8EA"/>
<path d="M330.421 267.448H327.035V291.921H330.421V267.448Z" fill="#1E1502"/>
<path d="M323.89 267.448H320.504V291.921H323.89V267.448Z" fill="#1E1502"/>
<path d="M397.245 291.848H316.18V299.839H397.245V291.848Z" fill="#FFF8EA"/>
<path d="M351.019 282.37H342.943V299.839H351.019V282.37Z" fill="#1E1502"/>
<path d="M347.731 268.665H342.943V274.828H347.731V268.665Z" fill="#1E1502"/>
<g opacity="0.3">
<path d="M342.943 268.665V269.428H346.923V274.828H347.731V268.665H342.943Z" fill="black"/>
</g>
<path d="M361.489 268.665H356.701V274.828H361.489V268.665Z" fill="#1E1502"/>
<g opacity="0.3">
<path d="M356.701 268.665V269.428H360.68V274.828H361.489V268.665H356.701Z" fill="black"/>
</g>
<path d="M376.215 268.665H371.428V274.828H376.215V268.665Z" fill="#1E1502"/>
<g opacity="0.3">
<path d="M371.428 268.665V269.428H375.407V274.828H376.215V268.665H371.428Z" fill="black"/>
</g>
<path d="M390.946 268.665H386.158V274.828H390.946V268.665Z" fill="#1E1502"/>
<g opacity="0.3">
<path d="M386.158 268.665V269.428H390.138V274.828H390.946V268.665H386.158Z" fill="black"/>
</g>
<path d="M361.489 279.684H356.701V285.848H361.489V279.684Z" fill="#1E1502"/>
<g opacity="0.3">
<path d="M356.701 279.684V280.448H360.68V285.848H361.489V279.684H356.701Z" fill="black"/>
</g>
<path d="M376.215 279.684H371.428V285.848H376.215V279.684Z" fill="#1E1502"/>
<g opacity="0.3">
<path d="M371.428 279.684V280.448H375.407V285.848H376.215V279.684H371.428Z" fill="black"/>
</g>
<path d="M390.946 279.684H386.158V285.848H390.946V279.684Z" fill="#1E1502"/>
<g opacity="0.3">
<path d="M386.158 279.684V280.448H390.138V285.848H390.946V279.684H386.158Z" fill="black"/>
</g>
<g opacity="0.3">
<path d="M337.791 260.964H316.18V299.839H337.791V260.964Z" fill="black"/>
</g>
<path d="M316.026 172.839H222.123V299.652H316.026V172.839Z" fill="#CC6E5E"/>
<path d="M249.647 181.878H242.75V191.787H249.647V181.878Z" fill="#1E1502"/>
<g opacity="0.3">
<path d="M242.75 181.878V183.107H248.483V191.787H249.646V181.878H242.75Z" fill="black"/>
</g>
<path d="M262.313 181.878H255.416V191.787H262.313V181.878Z" fill="#1E1502"/>
<g opacity="0.3">
<path d="M255.416 181.878V183.107H261.149V191.787H262.313V181.878H255.416Z" fill="black"/>
</g>
<path d="M274.979 181.878H268.082V191.787H274.979V181.878Z" fill="#1E1502"/>
<g opacity="0.3">
<path d="M268.082 181.878V183.107H273.815V191.787H274.979V181.878H268.082Z" fill="black"/>
</g>
<path d="M287.645 181.878H280.748V191.787H287.645V181.878Z" fill="#1E1502"/>
<g opacity="0.3">
<path d="M280.748 181.878V183.107H286.481V191.787H287.644V181.878H280.748Z" fill="black"/>
</g>
<path d="M300.309 181.878H293.412V191.787H300.309V181.878Z" fill="#1E1502"/>
<g opacity="0.3">
<path d="M293.412 181.878V183.107H299.145V191.787H300.308V181.878H293.412Z" fill="black"/>
</g>
<path d="M312.975 181.878H306.078V191.787H312.975V181.878Z" fill="#1E1502"/>
<g opacity="0.3">
<path d="M306.078 181.878V183.107H311.812V191.787H312.975V181.878H306.078Z" fill="black"/>
</g>
<path d="M250.248 205.954H243.352V215.863H250.248V205.954Z" fill="#1E1502"/>
<g opacity="0.3">
<path d="M243.352 205.954V207.182H249.085V215.863H250.248V205.954H243.352Z" fill="black"/>
</g>
<path d="M262.914 205.954H256.018V215.863H262.914V205.954Z" fill="#1E1502"/>
<g opacity="0.3">
<path d="M256.018 205.954V207.182H261.75V215.863H262.914V205.954H256.018Z" fill="black"/>
</g>
<path d="M275.578 205.954H268.682V215.863H275.578V205.954Z" fill="#1E1502"/>
<g opacity="0.3">
<path d="M268.682 205.954V207.182H274.414V215.863H275.578V205.954H268.682Z" fill="black"/>
</g>
<path d="M288.244 205.954H281.348V215.863H288.244V205.954Z" fill="#1E1502"/>
<g opacity="0.3">
<path d="M281.348 205.954V207.182H287.08V215.863H288.244V205.954H281.348Z" fill="black"/>
</g>
<path d="M300.909 205.954H294.012V215.863H300.909V205.954Z" fill="#1E1502"/>
<g opacity="0.3">
<path d="M294.012 205.954V207.182H299.745V215.863H300.909V205.954H294.012Z" fill="black"/>
</g>
<path d="M313.576 205.954H306.68V215.863H313.576V205.954Z" fill="#1E1502"/>
<g opacity="0.3">
<path d="M306.68 205.954V207.182H312.412V215.863H313.576V205.954H306.68Z" fill="black"/>
</g>
<path d="M249.516 229.958H242.619V239.867H249.516V229.958Z" fill="#1E1502"/>
<g opacity="0.3">
<path d="M242.619 229.958V231.187H248.352V239.867H249.515V229.958H242.619Z" fill="black"/>
</g>
<path d="M262.182 229.958H255.285V239.867H262.182V229.958Z" fill="#1E1502"/>
<g opacity="0.3">
<path d="M255.285 229.958V231.187H261.019V239.867H262.182V229.958H255.285Z" fill="black"/>
</g>
<path d="M274.846 229.958H267.949V239.867H274.846V229.958Z" fill="#1E1502"/>
<g opacity="0.3">
<path d="M267.949 229.958V231.187H273.683V239.867H274.846V229.958H267.949Z" fill="black"/>
</g>
<path d="M287.51 229.958H280.613V239.867H287.51V229.958Z" fill="#1E1502"/>
<g opacity="0.3">
<path d="M280.613 229.958V231.187H286.346V239.867H287.51V229.958H280.613Z" fill="black"/>
</g>
<path d="M300.176 229.958H293.279V239.867H300.176V229.958Z" fill="#1E1502"/>
<g opacity="0.3">
<path d="M293.279 229.958V231.187H299.012V239.867H300.175V229.958H293.279Z" fill="black"/>
</g>
<path d="M312.842 229.958H305.945V239.867H312.842V229.958Z" fill="#1E1502"/>
<g opacity="0.3">
<path d="M305.945 229.958V231.187H311.679V239.867H312.842V229.958H305.945Z" fill="black"/>
</g>
<path d="M249.852 253.891H242.955V263.8H249.852V253.891Z" fill="#1E1502"/>
<g opacity="0.3">
<path d="M242.955 253.891V255.119H248.688V263.8H249.852V253.891H242.955Z" fill="black"/>
</g>
<path d="M262.52 253.891H255.623V263.8H262.52V253.891Z" fill="#1E1502"/>
<g opacity="0.3">
<path d="M255.623 253.891V255.119H261.356V263.8H262.519V253.891H255.623Z" fill="black"/>
</g>
<path d="M275.186 253.891H268.289V263.8H275.186V253.891Z" fill="#1E1502"/>
<g opacity="0.3">
<path d="M268.289 253.891V255.12H274.022V263.8H275.186V253.891H268.289Z" fill="black"/>
</g>
<path d="M265.415 281.402H245.01V299.652H265.415V281.402Z" fill="#1E1502"/>
<g opacity="0.3">
<path d="M245.01 281.402V283.665H263.271V299.652H265.414V281.402H245.01Z" fill="black"/>
</g>
<path d="M282.474 281.402H269.771V299.652H282.474V281.402Z" fill="#1E1502"/>
<g opacity="0.3">
<path d="M269.771 281.402V283.665H280.331V299.652H282.474V281.402H269.771Z" fill="black"/>
</g>
<path d="M312.105 281.402H299.402V299.652H312.105V281.402Z" fill="#1E1502"/>
<g opacity="0.3">
<path d="M299.402 281.402V283.665H309.961V299.652H312.105V281.402H299.402Z" fill="black"/>
</g>
<path d="M287.852 253.891H280.955V263.8H287.852V253.891Z" fill="#1E1502"/>
<g opacity="0.3">
<path d="M280.955 253.891V255.119H286.688V263.8H287.852V253.891H280.955Z" fill="black"/>
</g>
<path d="M300.516 253.891H293.619V263.8H300.516V253.891Z" fill="#1E1502"/>
<g opacity="0.3">
<path d="M293.619 253.891V255.119H299.352V263.8H300.515V253.891H293.619Z" fill="black"/>
</g>
<path d="M313.18 253.891H306.283V263.8H313.18V253.891Z" fill="#1E1502"/>
<g opacity="0.3">
<path d="M306.283 253.891V255.119H312.016V263.8H313.179V253.891H306.283Z" fill="black"/>
</g>
<path d="M316.026 170.71H222.123V174.969H316.026V170.71Z" fill="#F8BD3C"/>
<path d="M316.026 195.812H222.123V200.07H316.026V195.812Z" fill="#F8BD3C"/>
<path d="M316.026 219.816H222.123V224.074H316.026V219.816Z" fill="#F8BD3C"/>
<path d="M316.026 243.82H222.123V248.078H316.026V243.82Z" fill="#F8BD3C"/>
<path d="M316.026 268.3H222.123V272.558H316.026V268.3Z" fill="#CC6E5E"/>
<path d="M228.659 181.102H226.15V191.392H228.659V181.102Z" fill="#263238"/>
<path d="M236.027 181.102H233.518V191.392H236.027V181.102Z" fill="#263238"/>
<path d="M228.802 204.023H226.293V214.312H228.802V204.023Z" fill="#263238"/>
<path d="M236.269 204.023H233.76V214.312H236.269V204.023Z" fill="#263238"/>
<path d="M228.745 228.027H226.236V238.316H228.745V228.027Z" fill="#263238"/>
<path d="M236.22 228.027H233.711V238.316H236.22V228.027Z" fill="#263238"/>
<path d="M228.407 252.269H225.898V262.559H228.407V252.269Z" fill="#263238"/>
<path d="M235.306 252.269H232.797V262.559H235.306V252.269Z" fill="#263238"/>
<path d="M228.407 281.458H225.898V299.653H228.407V281.458Z" fill="#263238"/>
<path d="M235.306 281.458H232.797V299.653H235.306V281.458Z" fill="#263238"/>
<path d="M316.026 269.613H222.123V273.871H316.026V269.613Z" fill="#F8BD3C"/>
<g opacity="0.3">
<path d="M238.559 170.71H222.123V299.652H238.559V170.71Z" fill="black"/>
</g>
<g opacity="0.3">
<path d="M316.025 248.078H238.557V249.873H316.025V248.078Z" fill="black"/>
</g>
<g opacity="0.3">
<path d="M316.025 273.932H238.557V275.726H316.025V273.932Z" fill="black"/>
</g>
<g opacity="0.3">
<path d="M316.025 224.296H238.557V226.091H316.025V224.296Z" fill="black"/>
</g>
<g opacity="0.3">
<path d="M316.025 200.07H238.557V201.864H316.025V200.07Z" fill="black"/>
</g>
<g opacity="0.3">
<path d="M316.025 174.969H238.557V176.763H316.025V174.969Z" fill="black"/>
</g>
<g opacity="0.3">
<path d="M296.202 282.457H286.662V299.653H296.202V282.457Z" fill="black"/>
</g>
<path d="M264.873 160.707H246.064V170.711H264.873V160.707Z" fill="#F8BD3C"/>
<g opacity="0.3">
<path d="M252.031 160.707H246.064V170.711H252.031V160.707Z" fill="black"/>
</g>
<path d="M249.923 263.621C249.923 263.739 248.348 263.834 246.405 263.834C244.461 263.834 242.887 263.738 242.887 263.621C242.887 263.503 244.462 263.408 246.405 263.408C248.348 263.407 249.923 263.503 249.923 263.621Z" fill="#FFF8EA"/>
<path d="M262.46 263.621C262.46 263.739 260.885 263.834 258.942 263.834C256.998 263.834 255.424 263.738 255.424 263.621C255.424 263.503 256.999 263.408 258.942 263.408C260.885 263.407 262.46 263.503 262.46 263.621Z" fill="#FFF8EA"/>
<path d="M274.991 263.621C274.991 263.739 273.416 263.834 271.473 263.834C269.53 263.834 267.955 263.738 267.955 263.621C267.955 263.503 269.53 263.408 271.473 263.408C273.416 263.407 274.991 263.503 274.991 263.621Z" fill="#FFF8EA"/>
<path d="M287.921 263.621C287.921 263.739 286.346 263.834 284.403 263.834C282.459 263.834 280.885 263.738 280.885 263.621C280.885 263.503 282.46 263.408 284.403 263.408C286.346 263.407 287.921 263.503 287.921 263.621Z" fill="#FFF8EA"/>
<path d="M300.644 263.621C300.644 263.739 299.068 263.834 297.126 263.834C295.182 263.834 293.607 263.738 293.607 263.621C293.607 263.503 295.182 263.408 297.126 263.408C299.068 263.407 300.644 263.503 300.644 263.621Z" fill="#FFF8EA"/>
<path d="M313.368 263.621C313.368 263.739 311.793 263.834 309.85 263.834C307.907 263.834 306.332 263.738 306.332 263.621C306.332 263.503 307.907 263.408 309.85 263.408C311.793 263.407 313.368 263.503 313.368 263.621Z" fill="#FFF8EA"/>
<path d="M249.923 239.707C249.923 239.825 248.348 239.921 246.405 239.921C244.461 239.921 242.887 239.825 242.887 239.707C242.887 239.589 244.462 239.494 246.405 239.494C248.348 239.494 249.923 239.59 249.923 239.707Z" fill="#FFF8EA"/>
<path d="M262.46 239.707C262.46 239.825 260.885 239.921 258.942 239.921C256.998 239.921 255.424 239.825 255.424 239.707C255.424 239.589 256.999 239.494 258.942 239.494C260.885 239.494 262.46 239.59 262.46 239.707Z" fill="#FFF8EA"/>
<path d="M274.993 239.707C274.993 239.825 273.418 239.921 271.475 239.921C269.531 239.921 267.957 239.825 267.957 239.707C267.957 239.589 269.532 239.494 271.475 239.494C273.418 239.494 274.993 239.59 274.993 239.707Z" fill="#FFF8EA"/>
<path d="M287.921 239.707C287.921 239.825 286.346 239.921 284.403 239.921C282.459 239.921 280.885 239.825 280.885 239.707C280.885 239.589 282.46 239.494 284.403 239.494C286.346 239.494 287.921 239.59 287.921 239.707Z" fill="#FFF8EA"/>
<path d="M300.644 239.707C300.644 239.825 299.068 239.921 297.126 239.921C295.182 239.921 293.607 239.825 293.607 239.707C293.607 239.589 295.182 239.494 297.126 239.494C299.068 239.494 300.644 239.59 300.644 239.707Z" fill="#FFF8EA"/>
<path d="M313.366 239.707C313.366 239.825 311.791 239.921 309.848 239.921C307.905 239.921 306.33 239.825 306.33 239.707C306.33 239.589 307.905 239.494 309.848 239.494C311.791 239.494 313.366 239.59 313.366 239.707Z" fill="#FFF8EA"/>
<path d="M249.923 215.863C249.923 215.981 248.348 216.076 246.405 216.076C244.461 216.076 242.887 215.98 242.887 215.863C242.887 215.746 244.462 215.65 246.405 215.65C248.348 215.649 249.923 215.745 249.923 215.863Z" fill="#FFF8EA"/>
<path d="M262.46 215.863C262.46 215.981 260.885 216.076 258.942 216.076C256.998 216.076 255.424 215.98 255.424 215.863C255.424 215.746 256.999 215.65 258.942 215.65C260.885 215.649 262.46 215.745 262.46 215.863Z" fill="#FFF8EA"/>
<path d="M274.993 215.863C274.993 215.981 273.418 216.076 271.475 216.076C269.531 216.076 267.957 215.98 267.957 215.863C267.957 215.746 269.532 215.65 271.475 215.65C273.418 215.649 274.993 215.745 274.993 215.863Z" fill="#FFF8EA"/>
<path d="M287.921 215.863C287.921 215.981 286.346 216.076 284.403 216.076C282.459 216.076 280.885 215.98 280.885 215.863C280.885 215.746 282.46 215.65 284.403 215.65C286.346 215.649 287.921 215.745 287.921 215.863Z" fill="#FFF8EA"/>
<path d="M300.644 215.863C300.644 215.981 299.068 216.076 297.126 216.076C295.182 216.076 293.607 215.98 293.607 215.863C293.607 215.746 295.182 215.65 297.126 215.65C299.068 215.649 300.644 215.745 300.644 215.863Z" fill="#FFF8EA"/>
<path d="M313.366 215.863C313.366 215.981 311.791 216.076 309.848 216.076C307.905 216.076 306.33 215.98 306.33 215.863C306.33 215.746 307.905 215.65 309.848 215.65C311.791 215.649 313.366 215.745 313.366 215.863Z" fill="#FFF8EA"/>
<path d="M249.923 191.787C249.923 191.905 248.348 192 246.405 192C244.461 192 242.887 191.904 242.887 191.787C242.887 191.669 244.462 191.573 246.405 191.573C248.348 191.573 249.923 191.669 249.923 191.787Z" fill="#FFF8EA"/>
<path d="M262.46 191.787C262.46 191.905 260.885 192 258.942 192C256.998 192 255.424 191.904 255.424 191.787C255.424 191.669 256.999 191.573 258.942 191.573C260.885 191.573 262.46 191.669 262.46 191.787Z" fill="#FFF8EA"/>
<path d="M274.993 191.787C274.993 191.905 273.418 192 271.475 192C269.531 192 267.957 191.904 267.957 191.787C267.957 191.668 269.532 191.573 271.475 191.573C273.418 191.573 274.993 191.668 274.993 191.787Z" fill="#FFF8EA"/>
<path d="M287.921 191.787C287.921 191.905 286.346 192 284.403 192C282.459 192 280.885 191.904 280.885 191.787C280.885 191.669 282.46 191.573 284.403 191.573C286.346 191.573 287.921 191.669 287.921 191.787Z" fill="#FFF8EA"/>
<path d="M300.644 191.787C300.644 191.905 299.068 192 297.126 192C295.182 192 293.607 191.904 293.607 191.787C293.607 191.668 295.182 191.573 297.126 191.573C299.068 191.573 300.644 191.668 300.644 191.787Z" fill="#FFF8EA"/>
<path d="M313.366 191.787C313.366 191.905 311.791 192 309.848 192C307.905 192 306.33 191.904 306.33 191.787C306.33 191.669 307.905 191.573 309.848 191.573C311.791 191.573 313.366 191.669 313.366 191.787Z" fill="#FFF8EA"/>
<path d="M222.003 213.297H159.631V299.551H222.003V213.297Z" fill="#FF9A6C"/>
<path d="M192.894 269.191H185.732V279.48H192.894V269.191Z" fill="#1E1502"/>
<g opacity="0.3">
<path d="M185.732 269.191V270.466H191.686V279.48H192.894V269.191H185.732Z" fill="black"/>
</g>
<path d="M194.984 279.48H185.732V280.692H194.984V279.48Z" fill="#FFF8EA"/>
<path d="M192.894 285.433H185.732V295.723H192.894V285.433Z" fill="#1E1502"/>
<g opacity="0.3">
<path d="M185.732 285.433V286.709H191.686V295.724H192.894V285.433H185.732Z" fill="black"/>
</g>
<path d="M194.984 295.724H185.732V296.935H194.984V295.724Z" fill="#FFF8EA"/>
<path d="M192.761 254.8H185.6V265.09H192.761V254.8Z" fill="#1E1502"/>
<g opacity="0.3">
<path d="M185.6 254.8V256.076H191.552V265.09H192.761V254.8H185.6Z" fill="black"/>
</g>
<path d="M194.851 265.09H185.6V266.302H194.851V265.09Z" fill="#FFF8EA"/>
<path d="M192.628 240.41H185.467V250.7H192.628V240.41Z" fill="#1E1502"/>
<g opacity="0.3">
<path d="M185.467 240.41V241.686H191.42V250.7H192.628V240.41H185.467Z" fill="black"/>
</g>
<path d="M194.718 250.7H185.467V251.912H194.718V250.7Z" fill="#FFF8EA"/>
<path d="M192.488 226.02H185.326V236.31H192.488V226.02Z" fill="#1E1502"/>
<g opacity="0.3">
<path d="M185.326 226.02V227.296H191.279V236.31H192.487V226.02H185.326Z" fill="black"/>
</g>
<path d="M194.578 236.31H185.326V237.521H194.578V236.31Z" fill="#FFF8EA"/>
<path d="M211.395 269.191H204.234V279.48H211.395V269.191Z" fill="#1E1502"/>
<g opacity="0.3">
<path d="M204.234 269.191V270.466H210.188V279.48H211.395V269.191H204.234Z" fill="black"/>
</g>
<path d="M213.486 279.48H204.234V280.692H213.486V279.48Z" fill="#FFF8EA"/>
<path d="M211.263 254.801H204.102V265.09H211.263V254.801Z" fill="#1E1502"/>
<g opacity="0.3">
<path d="M204.102 254.801V256.076H210.055V265.09H211.263V254.801H204.102Z" fill="black"/>
</g>
<path d="M213.353 265.09H204.102V266.302H213.353V265.09Z" fill="#FFF8EA"/>
<path d="M211.126 240.41H203.965V250.7H211.126V240.41Z" fill="#1E1502"/>
<g opacity="0.3">
<path d="M203.965 240.41V241.686H209.918V250.7H211.127V240.41H203.965Z" fill="black"/>
</g>
<path d="M213.216 250.7H203.965V251.912H213.216V250.7Z" fill="#FFF8EA"/>
<path d="M210.994 226.02H203.832V236.31H210.994V226.02Z" fill="#1E1502"/>
<g opacity="0.3">
<path d="M203.832 226.02V227.296H209.785V236.31H210.994V226.02H203.832Z" fill="black"/>
</g>
<path d="M213.084 236.31H203.832V237.522H213.084V236.31Z" fill="#FFF8EA"/>
<path d="M167.411 225.234H164.902V235.524H167.411V225.234Z" fill="#263238"/>
<path d="M167.766 235.524H163.186V237.074H167.766V235.524Z" fill="#FFF8EA"/>
<path d="M167.411 241.02H164.902V251.309H167.411V241.02Z" fill="#263238"/>
<path d="M167.766 251.309H163.186V252.86H167.766V251.309Z" fill="#FFF8EA"/>
<path d="M167.411 256.807H164.902V267.096H167.411V256.807Z" fill="#263238"/>
<path d="M167.766 267.096H163.186V268.646H167.766V267.096Z" fill="#FFF8EA"/>
<path d="M167.411 272.592H164.902V282.882H167.411V272.592Z" fill="#263238"/>
<path d="M167.766 282.881H163.186V284.432H167.766V282.881Z" fill="#FFF8EA"/>
<path d="M167.411 286.898H164.902V297.187H167.411V286.898Z" fill="#263238"/>
<path d="M167.766 297.187H163.186V298.738H167.766V297.187Z" fill="#FFF8EA"/>
<path d="M223.657 208.967H158.477V213.298H223.657V208.967Z" fill="#FFF8EA"/>
<path d="M221.949 215.135H159.539V216.414H221.949V215.135Z" fill="#FFF8EA"/>
<path d="M213.405 283.657H203.51V299.551H213.405V283.657Z" fill="#FFF8EA"/>
<path d="M212.545 284.432H204.314V299.653H212.545V284.432Z" fill="#263238"/>
<g opacity="0.3">
<path d="M174.583 213.297H159.631V299.653H174.583V213.297Z" fill="black"/>
</g>
<g opacity="0.3">
<path d="M170.341 208.967H158.477V213.298H170.341V208.967Z" fill="black"/>
</g>
<path d="M95.4533 181.537H2.09375V299.653H95.4533V181.537Z" fill="#F8BD3C"/>
<path d="M96.6486 179.538H0.666016V183.537H96.6486V179.538Z" fill="#FF9A6C"/>
<path d="M95.4533 190.359H2.09375V193.652H95.4533V190.359Z" fill="#FF9A6C"/>
<path d="M95.4533 186.125H2.09375V187.771H95.4533V186.125Z" fill="#FF9A6C"/>
<path d="M87.7094 193.14H66.0664V278.108H87.7094V193.14Z" fill="#FF9A6C"/>
<path d="M43.6957 193.14H22.0527V278.108H43.6957V193.14Z" fill="#FF9A6C"/>
<path d="M96.6471 278.108H2.09375V281.401H96.6471V278.108Z" fill="#FF9A6C"/>
<path d="M61.8308 283.048H45.3633V299.516H61.8308V283.048Z" fill="#FF9A6C"/>
<path d="M75.7087 284.229H68.5469V294.519H75.7087V284.229Z" fill="#1E1502"/>
<g opacity="0.3">
<path d="M68.5469 284.229V285.505H74.5001V294.519H75.7087V284.229H68.5469Z" fill="black"/>
</g>
<path d="M77.7984 294.519H68.5469V295.731H77.7984V294.519Z" fill="#FFF8EA"/>
<path d="M91.7966 284.229H84.6348V294.519H91.7966V284.229Z" fill="#1E1502"/>
<g opacity="0.3">
<path d="M84.6348 284.229V285.505H90.588V294.519H91.7966V284.229H84.6348Z" fill="black"/>
</g>
<path d="M93.8843 294.519H84.6328V295.731H93.8843V294.519Z" fill="#FFF8EA"/>
<path d="M14.4372 284.229H7.27539V294.519H14.4372V284.229Z" fill="#1E1502"/>
<g opacity="0.3">
<path d="M7.27539 284.229V285.505H13.2287V294.519H14.4364V284.229H7.27539Z" fill="black"/>
</g>
<path d="M16.5269 294.519H7.27539V295.731H16.5269V294.519Z" fill="#FFF8EA"/>
<path d="M36.6091 285.065H29.4473V295.354H36.6091V285.065Z" fill="#1E1502"/>
<g opacity="0.3">
<path d="M29.4473 285.065V286.341H35.4005V295.354H36.6091V285.065H29.4473Z" fill="black"/>
</g>
<path d="M38.6988 295.354H29.4473V296.566H38.6988V295.354Z" fill="#FFF8EA"/>
<path d="M58.4626 262.072H51.3008V272.361H58.4626V262.072Z" fill="#1E1502"/>
<g opacity="0.3">
<path d="M51.3008 262.072V263.348H57.2541V272.361H58.4626V262.072H51.3008Z" fill="black"/>
</g>
<path d="M58.4626 241.676H51.3008V251.966H58.4626V241.676Z" fill="#1E1502"/>
<g opacity="0.3">
<path d="M51.3008 241.676V242.952H57.2541V251.966H58.4626V241.676H51.3008Z" fill="black"/>
</g>
<path d="M58.4626 221.281H51.3008V231.571H58.4626V221.281Z" fill="#1E1502"/>
<g opacity="0.3">
<path d="M51.3008 221.281V222.556H57.2541V231.57H58.4626V221.281H51.3008Z" fill="black"/>
</g>
<path d="M58.4626 200.885H51.3008V211.175H58.4626V200.885Z" fill="#1E1502"/>
<g opacity="0.3">
<path d="M58.4626 200.885H51.3008V211.175H58.4626V200.885Z" fill="#FFF8EA"/>
</g>
<g opacity="0.3">
<path d="M51.3008 200.885V202.161H57.2541V211.175H58.4626V200.885H51.3008Z" fill="black"/>
</g>
<path d="M36.4567 262.265H29.2949V272.554H36.4567V262.265Z" fill="#1E1502"/>
<g opacity="0.3">
<path d="M29.2949 262.265V263.541H35.2474V272.554H36.4559V262.265H29.2949Z" fill="black"/>
</g>
<path d="M36.4567 241.869H29.2949V252.158H36.4567V241.869Z" fill="#1E1502"/>
<g opacity="0.3">
<path d="M29.2949 241.869V243.145H35.2474V252.158H36.4559V241.869H29.2949Z" fill="black"/>
</g>
<path d="M36.4567 221.473H29.2949V231.763H36.4567V221.473Z" fill="#1E1502"/>
<g opacity="0.3">
<path d="M36.4567 221.473H29.2949V231.763H36.4567V221.473Z" fill="#FFF8EA"/>
</g>
<g opacity="0.3">
<path d="M29.2949 221.473V222.749H35.2474V231.763H36.4559V221.473H29.2949Z" fill="black"/>
</g>
<path d="M36.4567 201.078H29.2949V211.368H36.4567V201.078Z" fill="#1E1502"/>
<g opacity="0.3">
<path d="M36.4567 201.078H29.2949V211.368H36.4567V201.078Z" fill="#FFF8EA"/>
</g>
<g opacity="0.3">
<path d="M29.2949 201.078V202.354H35.2474V211.368H36.4559V201.078H29.2949Z" fill="black"/>
</g>
<path d="M81.3798 262.258H74.2188V272.547H81.3798V262.258Z" fill="#1E1502"/>
<g opacity="0.3">
<path d="M74.2188 262.258V263.533H80.172V272.547H81.3806V262.258H74.2188Z" fill="black"/>
</g>
<path d="M81.3798 241.862H74.2188V252.151H81.3798V241.862Z" fill="#1E1502"/>
<g opacity="0.3">
<path d="M74.2188 241.862V243.138H80.172V252.151H81.3806V241.862H74.2188Z" fill="black"/>
</g>
<path d="M81.3798 221.466H74.2188V231.755H81.3798V221.466Z" fill="#1E1502"/>
<g opacity="0.3">
<path d="M81.3798 221.466H74.2188V231.755H81.3798V221.466Z" fill="#FFF8EA"/>
</g>
<g opacity="0.3">
<path d="M74.2188 221.466V222.742H80.172V231.755H81.3806V221.466H74.2188Z" fill="black"/>
</g>
<path d="M81.3798 201.07H74.2188V211.359H81.3798V201.07Z" fill="#1E1502"/>
<g opacity="0.3">
<path d="M81.3798 201.07H74.2188V211.359H81.3798V201.07Z" fill="#FFF8EA"/>
</g>
<g opacity="0.3">
<path d="M74.2188 201.07V202.346H80.172V211.359H81.3806V201.07H74.2188Z" fill="black"/>
</g>
<path d="M10.4699 201.677H7.96094V211.967H10.4699V201.677Z" fill="#263238"/>
<path d="M10.8248 211.967H6.24414V213.517H10.8248V211.967Z" fill="#FFF8EA"/>
<path d="M10.4699 221.281H7.96094V231.57H10.4699V221.281Z" fill="#263238"/>
<path d="M10.8248 231.57H6.24414V233.121H10.8248V231.57Z" fill="#FFF8EA"/>
<path d="M10.4699 240.884H7.96094V251.173H10.4699V240.884Z" fill="#263238"/>
<path d="M10.8248 251.173H6.24414V252.724H10.8248V251.173Z" fill="#FFF8EA"/>
<path d="M10.4699 260.487H7.96094V270.776H10.4699V260.487Z" fill="#263238"/>
<path d="M10.8248 270.777H6.24414V272.328H10.8248V270.777Z" fill="#FFF8EA"/>
<g opacity="0.3">
<path d="M19.1101 183.537H2.09375V299.653H19.1101V183.537Z" fill="black"/>
</g>
<path d="M60.2525 284.654H47.1973V299.516H60.2525V284.654Z" fill="#263238"/>
<g opacity="0.3">
<path d="M16.3377 179.538H0.666016V183.537H16.3377V179.538Z" fill="black"/>
</g>
<path d="M36.255 211.607C36.255 211.726 34.6798 211.821 32.7369 211.821C30.7932 211.821 29.2188 211.725 29.2188 211.607C29.2188 211.49 30.794 211.394 32.7369 211.394C34.6798 211.394 36.255 211.489 36.255 211.607Z" fill="#FFF8EA"/>
<path d="M58.5988 211.368C58.5988 211.486 57.0235 211.581 55.0806 211.581C53.137 211.581 51.5625 211.485 51.5625 211.368C51.5625 211.249 53.137 211.154 55.0806 211.154C57.0235 211.153 58.5988 211.249 58.5988 211.368Z" fill="#FFF8EA"/>
<path d="M81.5168 211.552C81.5168 211.67 79.9415 211.765 77.9986 211.765C76.0549 211.765 74.4805 211.669 74.4805 211.552C74.4805 211.435 76.0558 211.339 77.9986 211.339C79.9415 211.339 81.5168 211.434 81.5168 211.552Z" fill="#FFF8EA"/>
<path d="M81.5168 231.948C81.5168 232.066 79.9415 232.161 77.9986 232.161C76.0549 232.161 74.4805 232.065 74.4805 231.948C74.4805 231.831 76.0558 231.735 77.9986 231.735C79.9415 231.735 81.5168 231.83 81.5168 231.948Z" fill="#FFF8EA"/>
<path d="M58.1535 231.57C58.1535 231.688 56.5782 231.783 54.6353 231.783C52.6916 231.783 51.1172 231.687 51.1172 231.57C51.1172 231.453 52.6925 231.357 54.6353 231.357C56.5782 231.357 58.1535 231.453 58.1535 231.57Z" fill="#FFF8EA"/>
<path d="M58.1535 251.949C58.1535 252.067 56.5782 252.162 54.6353 252.162C52.6916 252.162 51.1172 252.067 51.1172 251.949C51.1172 251.83 52.6925 251.735 54.6353 251.735C56.5782 251.735 58.1535 251.831 58.1535 251.949Z" fill="#FFF8EA"/>
<path d="M81.6144 252.151C81.6144 252.269 80.0391 252.364 78.0963 252.364C76.1526 252.364 74.5781 252.268 74.5781 252.151C74.5781 252.034 76.1534 251.938 78.0963 251.938C80.0391 251.937 81.6144 252.033 81.6144 252.151Z" fill="#FFF8EA"/>
<path d="M35.7921 251.938C35.7921 252.056 34.2169 252.151 32.274 252.151C30.3303 252.151 28.7559 252.055 28.7559 251.938C28.7559 251.82 30.3311 251.724 32.274 251.724C34.2169 251.724 35.7921 251.82 35.7921 251.938Z" fill="#FFF8EA"/>
<path d="M36.464 272.554C36.464 272.673 34.8887 272.768 32.9459 272.768C31.0022 272.768 29.4277 272.672 29.4277 272.554C29.4277 272.437 31.003 272.341 32.9459 272.341C34.8887 272.341 36.464 272.436 36.464 272.554Z" fill="#FFF8EA"/>
<path d="M58.2003 272.327C58.2003 272.445 56.6251 272.54 54.6822 272.54C52.7385 272.54 51.1641 272.444 51.1641 272.327C51.1641 272.21 52.7393 272.114 54.6822 272.114C56.6242 272.114 58.2003 272.21 58.2003 272.327Z" fill="#FFF8EA"/>
<path d="M81.2355 272.554C81.2355 272.673 79.6602 272.768 77.7174 272.768C75.7737 272.768 74.1992 272.672 74.1992 272.554C74.1992 272.437 75.7745 272.341 77.7174 272.341C79.6602 272.341 81.2355 272.436 81.2355 272.554Z" fill="#FFF8EA"/>
<path d="M36.255 231.764C36.255 231.882 34.6798 231.977 32.7369 231.977C30.7932 231.977 29.2188 231.881 29.2188 231.764C29.2188 231.645 30.794 231.55 32.7369 231.55C34.6798 231.549 36.255 231.645 36.255 231.764Z" fill="#FFF8EA"/>
</svg>
