<svg xmlns="http://www.w3.org/2000/svg" width="1040" height="478" viewBox="0 0 1040 478" fill="none">
<path fill-rule="evenodd" clip-rule="evenodd" d="M769.845 364.003C946.987 284.798 1058.27 180.926 1036.69 100.415C1007.89 -7.07852 753.175 -32.2248 467.77 44.249C182.366 120.723 -25.6507 269.858 3.15199 377.351C20.9738 443.863 125.287 478.848 269.845 477.74L269.845 476.74C242.132 476.953 215.904 475.837 191.486 473.427C140.079 468.352 96.7524 457.541 64.5114 441.337C32.2694 425.132 11.2185 403.592 4.11793 377.092C-2.98265 350.593 4.47804 321.413 24.2982 291.259C44.1175 261.105 76.2337 230.079 118.216 199.98C202.175 139.787 325.413 83.4289 468.029 45.2149C610.646 7.00091 745.552 -5.81005 848.359 4.33937C899.766 9.41448 943.092 20.2253 975.333 36.4296C1007.58 52.6343 1028.63 74.1741 1035.73 100.674C1042.83 127.173 1035.37 156.353 1015.55 186.508C995.727 216.661 963.611 247.687 921.629 277.786C879.916 307.691 828.508 336.65 769.845 362.907L769.845 364.003Z" fill="#E90026"/>
</svg>