<svg xmlns="http://www.w3.org/2000/svg" width="1040" height="478" viewBox="0 0 1040 478" fill="none">
<path fill-rule="evenodd" clip-rule="evenodd" d="M270 113.982C92.8582 193.188 -18.4206 297.059 3.15235 377.57C31.9551 485.064 286.67 510.21 572.075 433.736C857.479 357.262 1065.5 208.127 1036.69 100.634C1018.87 34.1224 914.558 -0.862483 770 0.245167V1.2452C797.713 1.03261 823.941 2.14798 848.359 4.55858C899.766 9.63367 943.093 20.4445 975.334 36.6487C1007.58 52.8535 1028.63 74.3933 1035.73 100.893C1042.83 127.392 1035.37 156.572 1015.55 186.727C995.727 216.88 963.611 247.906 921.629 278.005C837.67 338.198 714.432 394.556 571.816 432.77C429.199 470.984 294.293 483.795 191.486 473.646C140.079 468.571 96.7527 457.76 64.5117 441.556C32.2697 425.351 11.2188 403.811 4.11828 377.312C-2.98227 350.812 4.4784 321.633 24.2985 291.478C44.1178 261.324 76.234 230.299 118.216 200.2C159.929 170.294 211.337 141.335 270 115.078V113.982Z" fill="#E90026"/>
</svg>